G04 #@! TF.FileFunction,Copper,L2,Bot,Signal*
%FSLAX46Y46*%
G04 Gerber Fmt 4.6, Leading zero omitted, Abs format (unit mm)*
G04 Created by KiCad (PCBNEW 4.0.7-e2-6376~58~ubuntu14.04.1) date Sun Jan 28 19:01:43 2018*
%MOMM*%
%LPD*%
G01*
G04 APERTURE LIST*
%ADD10C,0.150000*%
%ADD11R,1.520000X1.520000*%
%ADD12C,1.520000*%
%ADD13O,3.014980X1.506220*%
%ADD14R,1.397000X1.397000*%
%ADD15C,1.397000*%
%ADD16R,1.600000X1.600000*%
%ADD17O,1.600000X1.600000*%
%ADD18O,2.540000X2.032000*%
%ADD19C,3.300000*%
%ADD20C,5.000000*%
%ADD21C,0.800000*%
%ADD22R,18.000000X18.000000*%
%ADD23C,1.000000*%
%ADD24R,12.700000X8.890000*%
%ADD25C,0.889000*%
%ADD26C,0.203200*%
%ADD27C,1.270000*%
%ADD28C,0.508000*%
%ADD29C,0.254000*%
G04 APERTURE END LIST*
D10*
D11*
X40000000Y-111000000D03*
D12*
X37460000Y-111000000D03*
X40000000Y-108460000D03*
X37460000Y-108460000D03*
X40000000Y-105920000D03*
X37460000Y-105920000D03*
X40000000Y-103380000D03*
X37460000Y-103380000D03*
X40000000Y-100840000D03*
X37460000Y-100840000D03*
X40000000Y-98300000D03*
X37460000Y-98300000D03*
X40000000Y-95760000D03*
X37460000Y-95760000D03*
D13*
X39000000Y-123730000D03*
X39000000Y-126270000D03*
D14*
X39500000Y-91170000D03*
D15*
X39500000Y-88630000D03*
D16*
X47200000Y-94500000D03*
D17*
X47200000Y-97040000D03*
X47200000Y-99580000D03*
X47200000Y-102120000D03*
X47200000Y-104660000D03*
X47200000Y-107200000D03*
X47200000Y-109740000D03*
X47200000Y-112280000D03*
X47200000Y-114820000D03*
D18*
X38900000Y-64300000D03*
X38900000Y-66840000D03*
X38900000Y-61760000D03*
X41400000Y-77200000D03*
X41400000Y-79740000D03*
X41400000Y-74660000D03*
D19*
X40000000Y-55000000D03*
X129000000Y-55000000D03*
X129000000Y-144000000D03*
X40000000Y-144000000D03*
D20*
X62000000Y-140500000D03*
X62000000Y-69500000D03*
X95900000Y-84900000D03*
X106500000Y-107600000D03*
X73000000Y-85000000D03*
X88000000Y-107700000D03*
X118100000Y-85100000D03*
X118100000Y-107800000D03*
X122000000Y-140500000D03*
X122000000Y-69500000D03*
X122000000Y-144000000D03*
X107000000Y-143746000D03*
X92000000Y-143898400D03*
X77000000Y-144050800D03*
X62000000Y-144000000D03*
X47000000Y-144000000D03*
X129000000Y-62000000D03*
X128746000Y-77000000D03*
X128898400Y-92000000D03*
X129050800Y-107000000D03*
X129000000Y-122000000D03*
X129000000Y-137000000D03*
D21*
X69000000Y-53500000D03*
X91000000Y-53500000D03*
X114000000Y-53500000D03*
X120000000Y-53500000D03*
X122000000Y-53500000D03*
X89000000Y-53500000D03*
D20*
X92000000Y-140500000D03*
X92000000Y-69500000D03*
D21*
X127000000Y-59000000D03*
X112000000Y-53500000D03*
D22*
X69000000Y-68500000D03*
D23*
X75000000Y-62000000D03*
X63000000Y-62000000D03*
D22*
X92000000Y-68500000D03*
D23*
X98000000Y-62000000D03*
X86000000Y-62000000D03*
D22*
X115000000Y-68500000D03*
D23*
X121000000Y-62000000D03*
X109000000Y-62000000D03*
D24*
X69000000Y-75300000D03*
D23*
X74000000Y-75500000D03*
D24*
X92000000Y-75300000D03*
D23*
X97000000Y-75500000D03*
D24*
X115000000Y-75300000D03*
D23*
X120000000Y-75500000D03*
D24*
X96500000Y-94100000D03*
D23*
X101500000Y-94300000D03*
D24*
X109000000Y-94100000D03*
D23*
X114000000Y-94300000D03*
D24*
X121500000Y-94100000D03*
D23*
X126500000Y-94300000D03*
D24*
X96300000Y-119600000D03*
D23*
X91300000Y-119400000D03*
D24*
X108800000Y-119600000D03*
D23*
X103800000Y-119400000D03*
D24*
X121300000Y-119600000D03*
D23*
X116300000Y-119400000D03*
D25*
X98500000Y-108800000D03*
X88500000Y-113400000D03*
X69800000Y-55500000D03*
X56300000Y-57500000D03*
X88200000Y-96000000D03*
X102500000Y-103900000D03*
X110800000Y-111400000D03*
X87100000Y-117200000D03*
X92600000Y-56600000D03*
X56900000Y-65600000D03*
X88400000Y-92400000D03*
X115500000Y-102800000D03*
X87200000Y-122600000D03*
X123500000Y-110900000D03*
X115200000Y-57600000D03*
X57900000Y-72100000D03*
X90400000Y-110200000D03*
X83100000Y-110300000D03*
X86400000Y-103700000D03*
X83300000Y-105000000D03*
X110500000Y-108700000D03*
X100900000Y-107500000D03*
X101200000Y-80500000D03*
X77800000Y-81300000D03*
X50300000Y-98400000D03*
X52100000Y-73500000D03*
X55100000Y-72800000D03*
X55000000Y-66100000D03*
X54100000Y-60500000D03*
X43200000Y-114800000D03*
X83100000Y-122500000D03*
X83100000Y-117100000D03*
X83700000Y-113700000D03*
X82100000Y-89600000D03*
X65300000Y-84000000D03*
X69500000Y-87100000D03*
X114000000Y-87400000D03*
X106600000Y-88200000D03*
X88100000Y-84600000D03*
X92600000Y-87100000D03*
X64900000Y-105800000D03*
X64700000Y-107700000D03*
X63300000Y-110200000D03*
X68800000Y-99700000D03*
X70600000Y-111200000D03*
X62900000Y-114700000D03*
X63300000Y-100900000D03*
X86400000Y-111500000D03*
X77600000Y-102900000D03*
X59500000Y-116000000D03*
X59100000Y-117500000D03*
X57600000Y-102500000D03*
X83200000Y-97900000D03*
X69300000Y-108800000D03*
X52100000Y-62000000D03*
X64400000Y-95600000D03*
X81000000Y-94300000D03*
X68000000Y-109000000D03*
X83100000Y-101100000D03*
X52300000Y-68800000D03*
X62600000Y-95500000D03*
X66200000Y-108900000D03*
X77300000Y-93300000D03*
X78900000Y-100100000D03*
X52100000Y-75100000D03*
X64300000Y-98400000D03*
D26*
X93300000Y-108800000D02*
X98500000Y-108800000D01*
X88500000Y-113400000D02*
X93300000Y-108800000D01*
X58300000Y-55500000D02*
X69800000Y-55500000D01*
X56300000Y-57500000D02*
X58300000Y-55500000D01*
X88200000Y-100800000D02*
X88200000Y-96000000D01*
X91400000Y-104000000D02*
X88200000Y-100800000D01*
X102400000Y-104000000D02*
X91400000Y-104000000D01*
X102500000Y-103900000D02*
X102400000Y-104000000D01*
X103600000Y-111400000D02*
X110800000Y-111400000D01*
X101800000Y-109700000D02*
X103600000Y-111400000D01*
X93300000Y-109700000D02*
X101800000Y-109700000D01*
X88700000Y-114300000D02*
X93300000Y-109700000D01*
X88700000Y-115600000D02*
X88700000Y-114300000D01*
X87100000Y-117200000D02*
X88700000Y-115600000D01*
X59100000Y-56700000D02*
X92400000Y-56700000D01*
X57500000Y-58300000D02*
X59100000Y-56700000D01*
X57500000Y-65000000D02*
X57500000Y-58300000D01*
X56900000Y-65600000D02*
X57500000Y-65000000D01*
X89200000Y-93000000D02*
X88400000Y-92400000D01*
X89200000Y-100300000D02*
X89200000Y-93000000D01*
X91700000Y-102800000D02*
X89200000Y-100300000D01*
X104100000Y-102800000D02*
X91700000Y-102800000D01*
X104100000Y-102800000D02*
X104100000Y-102800000D01*
X115400000Y-102800000D02*
X104100000Y-102800000D01*
X115500000Y-102800000D02*
X115400000Y-102800000D01*
X87200000Y-122600000D02*
X89400000Y-120500000D01*
X89400000Y-120500000D02*
X89400000Y-114400000D01*
X89400000Y-114400000D02*
X93300000Y-110500000D01*
X93300000Y-110500000D02*
X101600000Y-110500000D01*
X101600000Y-110500000D02*
X103400000Y-112300000D01*
X103400000Y-112300000D02*
X121500000Y-112300000D01*
X121500000Y-112300000D02*
X123500000Y-110900000D01*
X59800000Y-57600000D02*
X115200000Y-57600000D01*
X58500000Y-58900000D02*
X59800000Y-57600000D01*
X58500000Y-71500000D02*
X58500000Y-58900000D01*
X57900000Y-72100000D02*
X58500000Y-71500000D01*
X89600000Y-111000000D02*
X90400000Y-110200000D01*
X83700000Y-110900000D02*
X83100000Y-110300000D01*
X83700000Y-113700000D02*
X83700000Y-110900000D01*
X84600000Y-103700000D02*
X86400000Y-103700000D01*
X83300000Y-105000000D02*
X84600000Y-103700000D01*
X110500000Y-108700000D02*
X110800000Y-108700000D01*
X101200000Y-107500000D02*
X102600000Y-108900000D01*
X102600000Y-108900000D02*
X102600000Y-108900000D01*
X102600000Y-108900000D02*
X104300000Y-110600000D01*
X104300000Y-110600000D02*
X108600000Y-110600000D01*
X108600000Y-110600000D02*
X110500000Y-108700000D01*
X83700000Y-113700000D02*
X83700000Y-113600000D01*
X93100000Y-107500000D02*
X100900000Y-107500000D01*
X88300000Y-112300000D02*
X89600000Y-111000000D01*
X89600000Y-111000000D02*
X93100000Y-107500000D01*
X85000000Y-112300000D02*
X88300000Y-112300000D01*
X83700000Y-113600000D02*
X85000000Y-112300000D01*
X100900000Y-107500000D02*
X101200000Y-107500000D01*
X123600000Y-106900000D02*
X128950800Y-106900000D01*
X119400000Y-111100000D02*
X123600000Y-106900000D01*
X113200000Y-111100000D02*
X119400000Y-111100000D01*
X110800000Y-108700000D02*
X113200000Y-111100000D01*
X128950800Y-106900000D02*
X129050800Y-107000000D01*
X101400000Y-88200000D02*
X101400000Y-80700000D01*
X101400000Y-80700000D02*
X101200000Y-80500000D01*
X76900000Y-89050000D02*
X76900000Y-82200000D01*
X76900000Y-82200000D02*
X77800000Y-81300000D01*
X44300000Y-98300000D02*
X41760000Y-100840000D01*
X50200000Y-98300000D02*
X44300000Y-98300000D01*
X50300000Y-98400000D02*
X50200000Y-98300000D01*
X65300000Y-84000000D02*
X60500000Y-84000000D01*
X55100000Y-78600000D02*
X55100000Y-72800000D01*
X60500000Y-84000000D02*
X55100000Y-78600000D01*
X52100000Y-73500000D02*
X50940000Y-74660000D01*
X50940000Y-74660000D02*
X41400000Y-74660000D01*
X55000000Y-66100000D02*
X55000000Y-72700000D01*
X55000000Y-72700000D02*
X55100000Y-72800000D01*
X55000000Y-61400000D02*
X55000000Y-66100000D01*
X54100000Y-60500000D02*
X55000000Y-61400000D01*
D27*
X40000000Y-100840000D02*
X41760000Y-100840000D01*
X41760000Y-100840000D02*
X42240000Y-100840000D01*
X43200000Y-101800000D02*
X43200000Y-109800000D01*
X42240000Y-100840000D02*
X43200000Y-101800000D01*
X40000000Y-108460000D02*
X41860000Y-108460000D01*
X41860000Y-108460000D02*
X43200000Y-109800000D01*
X43200000Y-109800000D02*
X43200000Y-114800000D01*
D26*
X83100000Y-117100000D02*
X83100000Y-122500000D01*
X83100000Y-114300000D02*
X83100000Y-117100000D01*
X83700000Y-113700000D02*
X83100000Y-114300000D01*
X82100000Y-89600000D02*
X85100000Y-89600000D01*
X88100000Y-86600000D02*
X88100000Y-84600000D01*
X85100000Y-89600000D02*
X88100000Y-86600000D01*
X71450000Y-89050000D02*
X76900000Y-89050000D01*
X76900000Y-89050000D02*
X81550000Y-89050000D01*
X69500000Y-87100000D02*
X71450000Y-89050000D01*
X81550000Y-89050000D02*
X82100000Y-89600000D01*
X69500000Y-87100000D02*
X66200000Y-87100000D01*
X65300000Y-86200000D02*
X65300000Y-84000000D01*
X66200000Y-87100000D02*
X65300000Y-86200000D01*
X88100000Y-84600000D02*
X88100000Y-84800000D01*
X106600000Y-88200000D02*
X113200000Y-88200000D01*
X113200000Y-88200000D02*
X114000000Y-87400000D01*
X92600000Y-87100000D02*
X93000000Y-87100000D01*
X94100000Y-88200000D02*
X101400000Y-88200000D01*
X101400000Y-88200000D02*
X106600000Y-88200000D01*
X93000000Y-87100000D02*
X94100000Y-88200000D01*
X88100000Y-84600000D02*
X90600000Y-87100000D01*
X90600000Y-87100000D02*
X92600000Y-87100000D01*
X64900000Y-105800000D02*
X64700000Y-106000000D01*
X64700000Y-106000000D02*
X64700000Y-107700000D01*
D27*
X41400000Y-77200000D02*
X39100000Y-77200000D01*
X47200000Y-92500000D02*
X47200000Y-94500000D01*
X38200000Y-83500000D02*
X47200000Y-92500000D01*
X38200000Y-78100000D02*
X38200000Y-83500000D01*
X39100000Y-77200000D02*
X38200000Y-78100000D01*
D28*
X63300000Y-100900000D02*
X63300000Y-100800000D01*
X50300000Y-94500000D02*
X47200000Y-94500000D01*
X53800000Y-98000000D02*
X50300000Y-94500000D01*
X60500000Y-98000000D02*
X53800000Y-98000000D01*
X63300000Y-100800000D02*
X60500000Y-98000000D01*
X68800000Y-99700000D02*
X68600000Y-99500000D01*
X68600000Y-99500000D02*
X64700000Y-99500000D01*
X64700000Y-99500000D02*
X63300000Y-100900000D01*
X70600000Y-111200000D02*
X67300000Y-110200000D01*
X67300000Y-110200000D02*
X63300000Y-110200000D01*
X63300000Y-114300000D02*
X63300000Y-110200000D01*
X62900000Y-114700000D02*
X63300000Y-114300000D01*
X63300000Y-110200000D02*
X63300000Y-110200000D01*
X63300000Y-110200000D02*
X63300000Y-100900000D01*
X86400000Y-111500000D02*
X86300000Y-111500000D01*
X86300000Y-111500000D02*
X77600000Y-102900000D01*
D26*
X59500000Y-115100000D02*
X51400000Y-107200000D01*
X51400000Y-107200000D02*
X47200000Y-107200000D01*
X59500000Y-116000000D02*
X59500000Y-115100000D01*
X59500000Y-116000000D02*
X59500000Y-116000000D01*
X37460000Y-109160000D02*
X37460000Y-108460000D01*
X49760000Y-104660000D02*
X47200000Y-104660000D01*
X60400000Y-115300000D02*
X49760000Y-104660000D01*
X60400000Y-116200000D02*
X60400000Y-115300000D01*
X59100000Y-117500000D02*
X60400000Y-116200000D01*
X56680000Y-99580000D02*
X47200000Y-99580000D01*
X57400000Y-100300000D02*
X56680000Y-99580000D01*
X57400000Y-102300000D02*
X57400000Y-100300000D01*
X57600000Y-102500000D02*
X57400000Y-102300000D01*
X80000000Y-97900000D02*
X83200000Y-97900000D01*
X78000000Y-99900000D02*
X80000000Y-97900000D01*
X78000000Y-100400000D02*
X78000000Y-99900000D01*
X69300000Y-108800000D02*
X78000000Y-100400000D01*
X52100000Y-65000000D02*
X52100000Y-62000000D01*
X54200000Y-67100000D02*
X52100000Y-65000000D01*
X54200000Y-85300000D02*
X54200000Y-67100000D01*
X64400000Y-95600000D02*
X54200000Y-85300000D01*
X81000000Y-96000000D02*
X81000000Y-94300000D01*
X68000000Y-109000000D02*
X81000000Y-96000000D01*
X85800000Y-101100000D02*
X83100000Y-101100000D01*
X106600000Y-107700000D02*
X102500000Y-107700000D01*
X90500000Y-105800000D02*
X85800000Y-101100000D01*
X100600000Y-105800000D02*
X90500000Y-105800000D01*
X102500000Y-107700000D02*
X100600000Y-105800000D01*
X52300000Y-72600000D02*
X52300000Y-68800000D01*
X53000000Y-73300000D02*
X52300000Y-72600000D01*
X53000000Y-85900000D02*
X53000000Y-73300000D01*
X62600000Y-95500000D02*
X53000000Y-85900000D01*
X66200000Y-108900000D02*
X77300000Y-97800000D01*
X77300000Y-97800000D02*
X77300000Y-93300000D01*
X86400000Y-100000000D02*
X78900000Y-100100000D01*
X91400000Y-105000000D02*
X86400000Y-100000000D01*
X103000000Y-105000000D02*
X91400000Y-105000000D01*
X104500000Y-103500000D02*
X103000000Y-105000000D01*
X109400000Y-103500000D02*
X104500000Y-103500000D01*
X118000000Y-107700000D02*
X113600000Y-107700000D01*
X113600000Y-107700000D02*
X109400000Y-103500000D01*
X52100000Y-86200000D02*
X52100000Y-75100000D01*
X64300000Y-98400000D02*
X52100000Y-86200000D01*
X69000000Y-75300000D02*
X69000000Y-68500000D01*
D29*
G36*
X134174500Y-149174500D02*
X35825500Y-149174500D01*
X35825500Y-144452521D01*
X37714604Y-144452521D01*
X38061742Y-145292658D01*
X38703961Y-145935999D01*
X39543491Y-146284603D01*
X40452521Y-146285396D01*
X40572358Y-146235880D01*
X44943725Y-146235880D01*
X45225421Y-146658564D01*
X46377892Y-147135294D01*
X47625072Y-147134705D01*
X48774579Y-146658564D01*
X49056275Y-146235880D01*
X47000000Y-144179605D01*
X44943725Y-146235880D01*
X40572358Y-146235880D01*
X41292658Y-145938258D01*
X41935999Y-145296039D01*
X42284603Y-144456509D01*
X42285396Y-143547479D01*
X42215324Y-143377892D01*
X43864706Y-143377892D01*
X43865295Y-144625072D01*
X44341436Y-145774579D01*
X44764120Y-146056275D01*
X46820395Y-144000000D01*
X47179605Y-144000000D01*
X49235880Y-146056275D01*
X49658564Y-145774579D01*
X50135294Y-144622108D01*
X50134705Y-143374928D01*
X49658564Y-142225421D01*
X49235880Y-141943725D01*
X47179605Y-144000000D01*
X46820395Y-144000000D01*
X44764120Y-141943725D01*
X44341436Y-142225421D01*
X43864706Y-143377892D01*
X42215324Y-143377892D01*
X41938258Y-142707342D01*
X41296039Y-142064001D01*
X40573847Y-141764120D01*
X44943725Y-141764120D01*
X47000000Y-143820395D01*
X49056275Y-141764120D01*
X48774579Y-141341436D01*
X48241334Y-141120854D01*
X58864457Y-141120854D01*
X59331572Y-142251358D01*
X58865546Y-143373674D01*
X58864457Y-144620854D01*
X59340727Y-145773515D01*
X60221847Y-146656174D01*
X61373674Y-147134454D01*
X62620854Y-147135543D01*
X63773515Y-146659273D01*
X64146758Y-146286680D01*
X74943725Y-146286680D01*
X75225421Y-146709364D01*
X76377892Y-147186094D01*
X77625072Y-147185505D01*
X78774579Y-146709364D01*
X79056275Y-146286680D01*
X77000000Y-144230405D01*
X74943725Y-146286680D01*
X64146758Y-146286680D01*
X64656174Y-145778153D01*
X65134454Y-144626326D01*
X65135499Y-143428692D01*
X73864706Y-143428692D01*
X73865295Y-144675872D01*
X74341436Y-145825379D01*
X74764120Y-146107075D01*
X76820395Y-144050800D01*
X77179605Y-144050800D01*
X79235880Y-146107075D01*
X79658564Y-145825379D01*
X80135294Y-144672908D01*
X80134705Y-143425728D01*
X79658564Y-142276221D01*
X79235880Y-141994525D01*
X77179605Y-144050800D01*
X76820395Y-144050800D01*
X74764120Y-141994525D01*
X74341436Y-142276221D01*
X73864706Y-143428692D01*
X65135499Y-143428692D01*
X65135543Y-143379146D01*
X64668428Y-142248642D01*
X64848524Y-141814920D01*
X74943725Y-141814920D01*
X77000000Y-143871195D01*
X79056275Y-141814920D01*
X78774579Y-141392236D01*
X78118527Y-141120854D01*
X88864457Y-141120854D01*
X89310530Y-142200433D01*
X88865546Y-143272074D01*
X88864457Y-144519254D01*
X89340727Y-145671915D01*
X90221847Y-146554574D01*
X91373674Y-147032854D01*
X92620854Y-147033943D01*
X93773515Y-146557673D01*
X94350313Y-145981880D01*
X104943725Y-145981880D01*
X105225421Y-146404564D01*
X106377892Y-146881294D01*
X107625072Y-146880705D01*
X108774579Y-146404564D01*
X109056275Y-145981880D01*
X107000000Y-143925605D01*
X104943725Y-145981880D01*
X94350313Y-145981880D01*
X94656174Y-145676553D01*
X95134454Y-144524726D01*
X95135543Y-143277546D01*
X95072055Y-143123892D01*
X103864706Y-143123892D01*
X103865295Y-144371072D01*
X104341436Y-145520579D01*
X104764120Y-145802275D01*
X106820395Y-143746000D01*
X107179605Y-143746000D01*
X109235880Y-145802275D01*
X109658564Y-145520579D01*
X110135294Y-144368108D01*
X110134705Y-143120928D01*
X109658564Y-141971421D01*
X109235880Y-141689725D01*
X107179605Y-143746000D01*
X106820395Y-143746000D01*
X104764120Y-141689725D01*
X104341436Y-141971421D01*
X103864706Y-143123892D01*
X95072055Y-143123892D01*
X94689470Y-142197967D01*
X94975088Y-141510120D01*
X104943725Y-141510120D01*
X107000000Y-143566395D01*
X109056275Y-141510120D01*
X108796851Y-141120854D01*
X118864457Y-141120854D01*
X119331572Y-142251358D01*
X118865546Y-143373674D01*
X118864457Y-144620854D01*
X119340727Y-145773515D01*
X120221847Y-146656174D01*
X121373674Y-147134454D01*
X122620854Y-147135543D01*
X123773515Y-146659273D01*
X124656174Y-145778153D01*
X125134454Y-144626326D01*
X125134605Y-144452521D01*
X126714604Y-144452521D01*
X127061742Y-145292658D01*
X127703961Y-145935999D01*
X128543491Y-146284603D01*
X129452521Y-146285396D01*
X130292658Y-145938258D01*
X130935999Y-145296039D01*
X131284603Y-144456509D01*
X131285396Y-143547479D01*
X130938258Y-142707342D01*
X130296039Y-142064001D01*
X129456509Y-141715397D01*
X128547479Y-141714604D01*
X127707342Y-142061742D01*
X127064001Y-142703961D01*
X126715397Y-143543491D01*
X126714604Y-144452521D01*
X125134605Y-144452521D01*
X125135543Y-143379146D01*
X124668428Y-142248642D01*
X125134454Y-141126326D01*
X125135543Y-139879146D01*
X124869751Y-139235880D01*
X126943725Y-139235880D01*
X127225421Y-139658564D01*
X128377892Y-140135294D01*
X129625072Y-140134705D01*
X130774579Y-139658564D01*
X131056275Y-139235880D01*
X129000000Y-137179605D01*
X126943725Y-139235880D01*
X124869751Y-139235880D01*
X124659273Y-138726485D01*
X123778153Y-137843826D01*
X122626326Y-137365546D01*
X121379146Y-137364457D01*
X120226485Y-137840727D01*
X119343826Y-138721847D01*
X118865546Y-139873674D01*
X118864457Y-141120854D01*
X108796851Y-141120854D01*
X108774579Y-141087436D01*
X107622108Y-140610706D01*
X106374928Y-140611295D01*
X105225421Y-141087436D01*
X104943725Y-141510120D01*
X94975088Y-141510120D01*
X95134454Y-141126326D01*
X95135543Y-139879146D01*
X94659273Y-138726485D01*
X93778153Y-137843826D01*
X92626326Y-137365546D01*
X91379146Y-137364457D01*
X90226485Y-137840727D01*
X89343826Y-138721847D01*
X88865546Y-139873674D01*
X88864457Y-141120854D01*
X78118527Y-141120854D01*
X77622108Y-140915506D01*
X76374928Y-140916095D01*
X75225421Y-141392236D01*
X74943725Y-141814920D01*
X64848524Y-141814920D01*
X65134454Y-141126326D01*
X65135543Y-139879146D01*
X64659273Y-138726485D01*
X63778153Y-137843826D01*
X62626326Y-137365546D01*
X61379146Y-137364457D01*
X60226485Y-137840727D01*
X59343826Y-138721847D01*
X58865546Y-139873674D01*
X58864457Y-141120854D01*
X48241334Y-141120854D01*
X47622108Y-140864706D01*
X46374928Y-140865295D01*
X45225421Y-141341436D01*
X44943725Y-141764120D01*
X40573847Y-141764120D01*
X40456509Y-141715397D01*
X39547479Y-141714604D01*
X38707342Y-142061742D01*
X38064001Y-142703961D01*
X37715397Y-143543491D01*
X37714604Y-144452521D01*
X35825500Y-144452521D01*
X35825500Y-136377892D01*
X125864706Y-136377892D01*
X125865295Y-137625072D01*
X126341436Y-138774579D01*
X126764120Y-139056275D01*
X128820395Y-137000000D01*
X129179605Y-137000000D01*
X131235880Y-139056275D01*
X131658564Y-138774579D01*
X132135294Y-137622108D01*
X132134705Y-136374928D01*
X131658564Y-135225421D01*
X131235880Y-134943725D01*
X129179605Y-137000000D01*
X128820395Y-137000000D01*
X126764120Y-134943725D01*
X126341436Y-135225421D01*
X125864706Y-136377892D01*
X35825500Y-136377892D01*
X35825500Y-134764120D01*
X126943725Y-134764120D01*
X129000000Y-136820395D01*
X131056275Y-134764120D01*
X130774579Y-134341436D01*
X129622108Y-133864706D01*
X128374928Y-133865295D01*
X127225421Y-134341436D01*
X126943725Y-134764120D01*
X35825500Y-134764120D01*
X35825500Y-126611674D01*
X36900217Y-126611674D01*
X36914573Y-126683875D01*
X37174276Y-127161740D01*
X37597081Y-127503846D01*
X38118620Y-127658110D01*
X38873000Y-127658110D01*
X38873000Y-126397000D01*
X39127000Y-126397000D01*
X39127000Y-127658110D01*
X39881380Y-127658110D01*
X40402919Y-127503846D01*
X40825724Y-127161740D01*
X41085427Y-126683875D01*
X41099783Y-126611674D01*
X40977162Y-126397000D01*
X39127000Y-126397000D01*
X38873000Y-126397000D01*
X37022838Y-126397000D01*
X36900217Y-126611674D01*
X35825500Y-126611674D01*
X35825500Y-123730000D01*
X36815536Y-123730000D01*
X36921200Y-124261207D01*
X37222104Y-124711542D01*
X37672439Y-125012446D01*
X37675306Y-125013016D01*
X37597081Y-125036154D01*
X37174276Y-125378260D01*
X36914573Y-125856125D01*
X36900217Y-125928326D01*
X37022838Y-126143000D01*
X38873000Y-126143000D01*
X38873000Y-126123000D01*
X39127000Y-126123000D01*
X39127000Y-126143000D01*
X40977162Y-126143000D01*
X41099783Y-125928326D01*
X41085427Y-125856125D01*
X40825724Y-125378260D01*
X40402919Y-125036154D01*
X40324694Y-125013016D01*
X40327561Y-125012446D01*
X40777896Y-124711542D01*
X41078800Y-124261207D01*
X41184464Y-123730000D01*
X41078800Y-123198793D01*
X40777896Y-122748458D01*
X40327561Y-122447554D01*
X39796354Y-122341890D01*
X38203646Y-122341890D01*
X37672439Y-122447554D01*
X37222104Y-122748458D01*
X36921200Y-123198793D01*
X36815536Y-123730000D01*
X35825500Y-123730000D01*
X35825500Y-103656265D01*
X36064758Y-103656265D01*
X36276687Y-104169172D01*
X36668764Y-104561934D01*
X36880738Y-104649954D01*
X36670828Y-104736687D01*
X36278066Y-105128764D01*
X36065242Y-105641300D01*
X36064758Y-106196265D01*
X36276687Y-106709172D01*
X36668764Y-107101934D01*
X36880738Y-107189954D01*
X36670828Y-107276687D01*
X36278066Y-107668764D01*
X36065242Y-108181300D01*
X36064758Y-108736265D01*
X36276687Y-109249172D01*
X36668764Y-109641934D01*
X36880738Y-109729954D01*
X36670828Y-109816687D01*
X36278066Y-110208764D01*
X36065242Y-110721300D01*
X36064758Y-111276265D01*
X36276687Y-111789172D01*
X36668764Y-112181934D01*
X37181300Y-112394758D01*
X37736265Y-112395242D01*
X38249172Y-112183313D01*
X38605316Y-111827790D01*
X38636838Y-111995317D01*
X38775910Y-112211441D01*
X38988110Y-112356431D01*
X39240000Y-112407440D01*
X40760000Y-112407440D01*
X40995317Y-112363162D01*
X41211441Y-112224090D01*
X41356431Y-112011890D01*
X41407440Y-111760000D01*
X41407440Y-110240000D01*
X41363162Y-110004683D01*
X41224090Y-109788559D01*
X41011890Y-109643569D01*
X40760000Y-109592560D01*
X40755166Y-109592560D01*
X40799159Y-109438764D01*
X40000000Y-108639605D01*
X39200841Y-109438764D01*
X39244834Y-109592560D01*
X39240000Y-109592560D01*
X39004683Y-109636838D01*
X38788559Y-109775910D01*
X38643569Y-109988110D01*
X38606031Y-110173480D01*
X38251236Y-109818066D01*
X38039262Y-109730046D01*
X38249172Y-109643313D01*
X38641934Y-109251236D01*
X38723391Y-109055066D01*
X38779258Y-109189941D01*
X39021236Y-109259159D01*
X39820395Y-108460000D01*
X40179605Y-108460000D01*
X40978764Y-109259159D01*
X41220742Y-109189941D01*
X41407155Y-108667220D01*
X41379341Y-108112951D01*
X41220742Y-107730059D01*
X40978764Y-107660841D01*
X40179605Y-108460000D01*
X39820395Y-108460000D01*
X39021236Y-107660841D01*
X38779258Y-107730059D01*
X38727618Y-107874862D01*
X38643313Y-107670828D01*
X38251236Y-107278066D01*
X38039262Y-107190046D01*
X38249172Y-107103313D01*
X38641934Y-106711236D01*
X38729954Y-106499262D01*
X38816687Y-106709172D01*
X39208764Y-107101934D01*
X39404934Y-107183391D01*
X39270059Y-107239258D01*
X39200841Y-107481236D01*
X40000000Y-108280395D01*
X40799159Y-107481236D01*
X40729941Y-107239258D01*
X40585138Y-107187618D01*
X40789172Y-107103313D01*
X41181934Y-106711236D01*
X41394758Y-106198700D01*
X41395242Y-105643735D01*
X41183313Y-105130828D01*
X40791236Y-104738066D01*
X40579262Y-104650046D01*
X40789172Y-104563313D01*
X41181934Y-104171236D01*
X41394758Y-103658700D01*
X41395242Y-103103735D01*
X41183313Y-102590828D01*
X40791236Y-102198066D01*
X40595066Y-102116609D01*
X40729941Y-102060742D01*
X40799159Y-101818764D01*
X40000000Y-101019605D01*
X39200841Y-101818764D01*
X39270059Y-102060742D01*
X39414862Y-102112382D01*
X39210828Y-102196687D01*
X38818066Y-102588764D01*
X38730046Y-102800738D01*
X38643313Y-102590828D01*
X38251236Y-102198066D01*
X38055066Y-102116609D01*
X38189941Y-102060742D01*
X38259159Y-101818764D01*
X37460000Y-101019605D01*
X36660841Y-101818764D01*
X36730059Y-102060742D01*
X36874862Y-102112382D01*
X36670828Y-102196687D01*
X36278066Y-102588764D01*
X36065242Y-103101300D01*
X36064758Y-103656265D01*
X35825500Y-103656265D01*
X35825500Y-100632780D01*
X36052845Y-100632780D01*
X36080659Y-101187049D01*
X36239258Y-101569941D01*
X36481236Y-101639159D01*
X37280395Y-100840000D01*
X37639605Y-100840000D01*
X38438764Y-101639159D01*
X38680742Y-101569941D01*
X38726320Y-101442137D01*
X38779258Y-101569941D01*
X39021236Y-101639159D01*
X39820395Y-100840000D01*
X40179605Y-100840000D01*
X40978764Y-101639159D01*
X41220742Y-101569941D01*
X41407155Y-101047220D01*
X41379341Y-100492951D01*
X41220742Y-100110059D01*
X40978764Y-100040841D01*
X40179605Y-100840000D01*
X39820395Y-100840000D01*
X39021236Y-100040841D01*
X38779258Y-100110059D01*
X38733680Y-100237863D01*
X38680742Y-100110059D01*
X38438764Y-100040841D01*
X37639605Y-100840000D01*
X37280395Y-100840000D01*
X36481236Y-100040841D01*
X36239258Y-100110059D01*
X36052845Y-100632780D01*
X35825500Y-100632780D01*
X35825500Y-96036265D01*
X36064758Y-96036265D01*
X36276687Y-96549172D01*
X36668764Y-96941934D01*
X36880738Y-97029954D01*
X36670828Y-97116687D01*
X36278066Y-97508764D01*
X36065242Y-98021300D01*
X36064758Y-98576265D01*
X36276687Y-99089172D01*
X36668764Y-99481934D01*
X36864934Y-99563391D01*
X36730059Y-99619258D01*
X36660841Y-99861236D01*
X37460000Y-100660395D01*
X38259159Y-99861236D01*
X38189941Y-99619258D01*
X38045138Y-99567618D01*
X38249172Y-99483313D01*
X38641934Y-99091236D01*
X38729954Y-98879262D01*
X38816687Y-99089172D01*
X39208764Y-99481934D01*
X39404934Y-99563391D01*
X39270059Y-99619258D01*
X39200841Y-99861236D01*
X40000000Y-100660395D01*
X40799159Y-99861236D01*
X40729941Y-99619258D01*
X40585138Y-99567618D01*
X40789172Y-99483313D01*
X41181934Y-99091236D01*
X41394758Y-98578700D01*
X41395242Y-98023735D01*
X41183313Y-97510828D01*
X40791236Y-97118066D01*
X40579262Y-97030046D01*
X40789172Y-96943313D01*
X41181934Y-96551236D01*
X41394758Y-96038700D01*
X41395242Y-95483735D01*
X41183313Y-94970828D01*
X40791236Y-94578066D01*
X40278700Y-94365242D01*
X39723735Y-94364758D01*
X39210828Y-94576687D01*
X38818066Y-94968764D01*
X38730046Y-95180738D01*
X38643313Y-94970828D01*
X38251236Y-94578066D01*
X37738700Y-94365242D01*
X37183735Y-94364758D01*
X36670828Y-94576687D01*
X36278066Y-94968764D01*
X36065242Y-95481300D01*
X36064758Y-96036265D01*
X35825500Y-96036265D01*
X35825500Y-90471500D01*
X38154060Y-90471500D01*
X38154060Y-91868500D01*
X38198338Y-92103817D01*
X38337410Y-92319941D01*
X38549610Y-92464931D01*
X38801500Y-92515940D01*
X40198500Y-92515940D01*
X40433817Y-92471662D01*
X40649941Y-92332590D01*
X40794931Y-92120390D01*
X40845940Y-91868500D01*
X40845940Y-90471500D01*
X40801662Y-90236183D01*
X40662590Y-90020059D01*
X40450390Y-89875069D01*
X40198500Y-89824060D01*
X40102116Y-89824060D01*
X40254380Y-89761146D01*
X40629827Y-89386353D01*
X40833268Y-88896413D01*
X40833731Y-88365914D01*
X40631146Y-87875620D01*
X40256353Y-87500173D01*
X39766413Y-87296732D01*
X39235914Y-87296269D01*
X38745620Y-87498854D01*
X38370173Y-87873647D01*
X38166732Y-88363587D01*
X38166269Y-88894086D01*
X38368854Y-89384380D01*
X38743647Y-89759827D01*
X38898337Y-89824060D01*
X38801500Y-89824060D01*
X38566183Y-89868338D01*
X38350059Y-90007410D01*
X38205069Y-90219610D01*
X38154060Y-90471500D01*
X35825500Y-90471500D01*
X35825500Y-78100000D01*
X36929999Y-78100000D01*
X36930000Y-78100005D01*
X36930000Y-83499995D01*
X36929999Y-83500000D01*
X37026673Y-83986008D01*
X37301974Y-84398026D01*
X45930000Y-93026052D01*
X45930000Y-93263072D01*
X45803569Y-93448110D01*
X45752560Y-93700000D01*
X45752560Y-95300000D01*
X45796838Y-95535317D01*
X45935910Y-95751441D01*
X46148110Y-95896431D01*
X46292375Y-95925645D01*
X46185302Y-95997189D01*
X45874233Y-96462736D01*
X45765000Y-97011887D01*
X45765000Y-97068113D01*
X45874233Y-97617264D01*
X46185302Y-98082811D01*
X46525314Y-98310000D01*
X46185302Y-98537189D01*
X45874233Y-99002736D01*
X45765000Y-99551887D01*
X45765000Y-99608113D01*
X45874233Y-100157264D01*
X46185302Y-100622811D01*
X46525314Y-100850000D01*
X46185302Y-101077189D01*
X45874233Y-101542736D01*
X45765000Y-102091887D01*
X45765000Y-102148113D01*
X45874233Y-102697264D01*
X46185302Y-103162811D01*
X46525314Y-103390000D01*
X46185302Y-103617189D01*
X45874233Y-104082736D01*
X45765000Y-104631887D01*
X45765000Y-104688113D01*
X45874233Y-105237264D01*
X46185302Y-105702811D01*
X46525314Y-105930000D01*
X46185302Y-106157189D01*
X45874233Y-106622736D01*
X45765000Y-107171887D01*
X45765000Y-107228113D01*
X45874233Y-107777264D01*
X46185302Y-108242811D01*
X46525314Y-108470000D01*
X46185302Y-108697189D01*
X45874233Y-109162736D01*
X45765000Y-109711887D01*
X45765000Y-109768113D01*
X45874233Y-110317264D01*
X46185302Y-110782811D01*
X46525314Y-111010000D01*
X46185302Y-111237189D01*
X45874233Y-111702736D01*
X45765000Y-112251887D01*
X45765000Y-112308113D01*
X45874233Y-112857264D01*
X46185302Y-113322811D01*
X46525314Y-113550000D01*
X46185302Y-113777189D01*
X45874233Y-114242736D01*
X45765000Y-114791887D01*
X45765000Y-114848113D01*
X45874233Y-115397264D01*
X46185302Y-115862811D01*
X46650849Y-116173880D01*
X47200000Y-116283113D01*
X47749151Y-116173880D01*
X48214698Y-115862811D01*
X48525767Y-115397264D01*
X48635000Y-114848113D01*
X48635000Y-114791887D01*
X48525767Y-114242736D01*
X48214698Y-113777189D01*
X47874686Y-113550000D01*
X48214698Y-113322811D01*
X48525767Y-112857264D01*
X48635000Y-112308113D01*
X48635000Y-112251887D01*
X48525767Y-111702736D01*
X48214698Y-111237189D01*
X47874686Y-111010000D01*
X48214698Y-110782811D01*
X48525767Y-110317264D01*
X48635000Y-109768113D01*
X48635000Y-109711887D01*
X48525767Y-109162736D01*
X48214698Y-108697189D01*
X47874686Y-108470000D01*
X48214698Y-108242811D01*
X48419302Y-107936600D01*
X51100270Y-107936600D01*
X58661800Y-115311425D01*
X58585378Y-115387714D01*
X58420687Y-115784332D01*
X58420313Y-116213784D01*
X58561147Y-116554629D01*
X58489311Y-116584311D01*
X58185378Y-116887714D01*
X58020687Y-117284332D01*
X58020313Y-117713784D01*
X58184311Y-118110689D01*
X58487714Y-118414622D01*
X58884332Y-118579313D01*
X59313784Y-118579687D01*
X59710689Y-118415689D01*
X60014622Y-118112286D01*
X60179313Y-117715668D01*
X60179534Y-117462176D01*
X60920855Y-116720855D01*
X60948725Y-116679145D01*
X61080530Y-116481885D01*
X61136600Y-116200000D01*
X61136600Y-115300000D01*
X61080530Y-115018115D01*
X60920855Y-114779145D01*
X50280855Y-104139145D01*
X50041885Y-103979470D01*
X49760000Y-103923400D01*
X48419302Y-103923400D01*
X48214698Y-103617189D01*
X47874686Y-103390000D01*
X48214698Y-103162811D01*
X48525767Y-102697264D01*
X48635000Y-102148113D01*
X48635000Y-102091887D01*
X48525767Y-101542736D01*
X48214698Y-101077189D01*
X47874686Y-100850000D01*
X48214698Y-100622811D01*
X48419302Y-100316600D01*
X56374890Y-100316600D01*
X56663400Y-100605110D01*
X56663400Y-101940643D01*
X56520687Y-102284332D01*
X56520313Y-102713784D01*
X56684311Y-103110689D01*
X56987714Y-103414622D01*
X57384332Y-103579313D01*
X57813784Y-103579687D01*
X58210689Y-103415689D01*
X58514622Y-103112286D01*
X58679313Y-102715668D01*
X58679687Y-102286216D01*
X58515689Y-101889311D01*
X58212286Y-101585378D01*
X58136600Y-101553950D01*
X58136600Y-100300000D01*
X58080530Y-100018115D01*
X57920855Y-99779145D01*
X57200855Y-99059145D01*
X56961885Y-98899470D01*
X56909248Y-98889000D01*
X60131764Y-98889000D01*
X62220432Y-100977668D01*
X62220313Y-101113784D01*
X62384311Y-101510689D01*
X62411000Y-101537425D01*
X62411000Y-109562137D01*
X62385378Y-109587714D01*
X62220687Y-109984332D01*
X62220313Y-110413784D01*
X62384311Y-110810689D01*
X62411000Y-110837425D01*
X62411000Y-113734030D01*
X62289311Y-113784311D01*
X61985378Y-114087714D01*
X61820687Y-114484332D01*
X61820313Y-114913784D01*
X61984311Y-115310689D01*
X62287714Y-115614622D01*
X62684332Y-115779313D01*
X63113784Y-115779687D01*
X63510689Y-115615689D01*
X63814622Y-115312286D01*
X63979313Y-114915668D01*
X63979368Y-114852666D01*
X64121329Y-114640206D01*
X64189000Y-114300000D01*
X64189000Y-111089000D01*
X67168259Y-111089000D01*
X69742633Y-111869113D01*
X69987714Y-112114622D01*
X70384332Y-112279313D01*
X70813784Y-112279687D01*
X71210689Y-112115689D01*
X71514622Y-111812286D01*
X71679313Y-111415668D01*
X71679687Y-110986216D01*
X71515689Y-110589311D01*
X71212286Y-110285378D01*
X70815668Y-110120687D01*
X70386216Y-110120313D01*
X70266166Y-110169917D01*
X69307816Y-109879508D01*
X69513784Y-109879687D01*
X69910689Y-109715689D01*
X70214622Y-109412286D01*
X70379313Y-109015668D01*
X70379517Y-108781614D01*
X76520541Y-102852351D01*
X76520313Y-103113784D01*
X76684311Y-103510689D01*
X76987714Y-103814622D01*
X77384332Y-103979313D01*
X77427334Y-103979350D01*
X85367685Y-111828433D01*
X85484311Y-112110689D01*
X85787714Y-112414622D01*
X86184332Y-112579313D01*
X86613784Y-112579687D01*
X87010689Y-112415689D01*
X87314622Y-112112286D01*
X87479313Y-111715668D01*
X87479687Y-111286216D01*
X87315689Y-110889311D01*
X87181106Y-110754493D01*
X87373674Y-110834454D01*
X88620854Y-110835543D01*
X89773515Y-110359273D01*
X90656174Y-109478153D01*
X91134454Y-108326326D01*
X91135543Y-107079146D01*
X90911367Y-106536600D01*
X100294890Y-106536600D01*
X101979145Y-108220855D01*
X102218115Y-108380530D01*
X102500000Y-108436600D01*
X103453601Y-108436600D01*
X103840727Y-109373515D01*
X104721847Y-110256174D01*
X105702557Y-110663400D01*
X103892857Y-110663400D01*
X102305767Y-109164482D01*
X102192793Y-109093577D01*
X102081885Y-109019470D01*
X102071394Y-109017383D01*
X102062334Y-109011697D01*
X101930814Y-108989420D01*
X101800000Y-108963400D01*
X99579359Y-108963400D01*
X99579687Y-108586216D01*
X99415689Y-108189311D01*
X99112286Y-107885378D01*
X98715668Y-107720687D01*
X98286216Y-107720313D01*
X97889311Y-107884311D01*
X97709909Y-108063400D01*
X93300000Y-108063400D01*
X93166582Y-108089938D01*
X93032655Y-108113628D01*
X93025934Y-108117915D01*
X93018115Y-108119470D01*
X92905007Y-108195046D01*
X92790342Y-108268184D01*
X88561783Y-112320553D01*
X88286216Y-112320313D01*
X87889311Y-112484311D01*
X87585378Y-112787714D01*
X87420687Y-113184332D01*
X87420313Y-113613784D01*
X87584311Y-114010689D01*
X87887714Y-114314622D01*
X87963400Y-114346050D01*
X87963400Y-115294890D01*
X87137758Y-116120532D01*
X86886216Y-116120313D01*
X86489311Y-116284311D01*
X86185378Y-116587714D01*
X86020687Y-116984332D01*
X86020313Y-117413784D01*
X86184311Y-117810689D01*
X86487714Y-118114622D01*
X86884332Y-118279313D01*
X87313784Y-118279687D01*
X87710689Y-118115689D01*
X88014622Y-117812286D01*
X88179313Y-117415668D01*
X88179534Y-117162176D01*
X88663400Y-116678310D01*
X88663400Y-120184808D01*
X87264046Y-121520555D01*
X86986216Y-121520313D01*
X86589311Y-121684311D01*
X86285378Y-121987714D01*
X86120687Y-122384332D01*
X86120313Y-122813784D01*
X86284311Y-123210689D01*
X86587714Y-123514622D01*
X86984332Y-123679313D01*
X87413784Y-123679687D01*
X87810689Y-123515689D01*
X88114622Y-123212286D01*
X88279313Y-122815668D01*
X88279511Y-122587867D01*
X89302560Y-121611321D01*
X89302560Y-124045000D01*
X89346838Y-124280317D01*
X89485910Y-124496441D01*
X89698110Y-124641431D01*
X89950000Y-124692440D01*
X127309185Y-124692440D01*
X128373674Y-125134454D01*
X129620854Y-125135543D01*
X130773515Y-124659273D01*
X131656174Y-123778153D01*
X132134454Y-122626326D01*
X132135543Y-121379146D01*
X131659273Y-120226485D01*
X130778153Y-119343826D01*
X129626326Y-118865546D01*
X128379146Y-118864457D01*
X128297440Y-118898217D01*
X128297440Y-115155000D01*
X128253162Y-114919683D01*
X128114090Y-114703559D01*
X127901890Y-114558569D01*
X127650000Y-114507560D01*
X90334150Y-114507560D01*
X93605110Y-111236600D01*
X101294890Y-111236600D01*
X102879145Y-112820855D01*
X103118115Y-112980530D01*
X103400000Y-113036600D01*
X121500000Y-113036600D01*
X121578901Y-113020906D01*
X121659329Y-113019162D01*
X121718491Y-112993140D01*
X121781885Y-112980530D01*
X121848777Y-112935834D01*
X121922412Y-112903446D01*
X123258139Y-111968437D01*
X123284332Y-111979313D01*
X123713784Y-111979687D01*
X124110689Y-111815689D01*
X124414622Y-111512286D01*
X124579313Y-111115668D01*
X124579687Y-110686216D01*
X124415689Y-110289311D01*
X124112286Y-109985378D01*
X123715668Y-109820687D01*
X123286216Y-109820313D01*
X122889311Y-109984311D01*
X122585378Y-110287714D01*
X122420687Y-110684332D01*
X122420624Y-110756429D01*
X121267808Y-111563400D01*
X111879359Y-111563400D01*
X111879687Y-111186216D01*
X111715689Y-110789311D01*
X111412286Y-110485378D01*
X111015668Y-110320687D01*
X110586216Y-110320313D01*
X110189311Y-110484311D01*
X110009909Y-110663400D01*
X107295453Y-110663400D01*
X108273515Y-110259273D01*
X109156174Y-109378153D01*
X109634454Y-108226326D01*
X109635543Y-106979146D01*
X109159273Y-105826485D01*
X108278153Y-104943826D01*
X107126326Y-104465546D01*
X105879146Y-104464457D01*
X104726485Y-104940727D01*
X103843826Y-105821847D01*
X103369812Y-106963400D01*
X102805110Y-106963400D01*
X101578310Y-105736600D01*
X103000000Y-105736600D01*
X103281885Y-105680530D01*
X103520855Y-105520855D01*
X104805110Y-104236600D01*
X109094890Y-104236600D01*
X113079145Y-108220855D01*
X113318115Y-108380530D01*
X113600000Y-108436600D01*
X114970963Y-108436600D01*
X115440727Y-109573515D01*
X116321847Y-110456174D01*
X117473674Y-110934454D01*
X118720854Y-110935543D01*
X119873515Y-110459273D01*
X120756174Y-109578153D01*
X120898298Y-109235880D01*
X126994525Y-109235880D01*
X127276221Y-109658564D01*
X128428692Y-110135294D01*
X129675872Y-110134705D01*
X130825379Y-109658564D01*
X131107075Y-109235880D01*
X129050800Y-107179605D01*
X126994525Y-109235880D01*
X120898298Y-109235880D01*
X121234454Y-108426326D01*
X121235543Y-107179146D01*
X120904472Y-106377892D01*
X125915506Y-106377892D01*
X125916095Y-107625072D01*
X126392236Y-108774579D01*
X126814920Y-109056275D01*
X128871195Y-107000000D01*
X129230405Y-107000000D01*
X131286680Y-109056275D01*
X131709364Y-108774579D01*
X132186094Y-107622108D01*
X132185505Y-106374928D01*
X131709364Y-105225421D01*
X131286680Y-104943725D01*
X129230405Y-107000000D01*
X128871195Y-107000000D01*
X126814920Y-104943725D01*
X126392236Y-105225421D01*
X125915506Y-106377892D01*
X120904472Y-106377892D01*
X120759273Y-106026485D01*
X119878153Y-105143826D01*
X118963719Y-104764120D01*
X126994525Y-104764120D01*
X129050800Y-106820395D01*
X131107075Y-104764120D01*
X130825379Y-104341436D01*
X129672908Y-103864706D01*
X128425728Y-103865295D01*
X127276221Y-104341436D01*
X126994525Y-104764120D01*
X118963719Y-104764120D01*
X118726326Y-104665546D01*
X117479146Y-104664457D01*
X116326485Y-105140727D01*
X115443826Y-106021847D01*
X115052859Y-106963400D01*
X113905110Y-106963400D01*
X110478310Y-103536600D01*
X114710002Y-103536600D01*
X114887714Y-103714622D01*
X115284332Y-103879313D01*
X115713784Y-103879687D01*
X116110689Y-103715689D01*
X116414622Y-103412286D01*
X116579313Y-103015668D01*
X116579687Y-102586216D01*
X116415689Y-102189311D01*
X116112286Y-101885378D01*
X115715668Y-101720687D01*
X115286216Y-101720313D01*
X114889311Y-101884311D01*
X114709909Y-102063400D01*
X92005110Y-102063400D01*
X89936600Y-99994890D01*
X89936600Y-99149225D01*
X90150000Y-99192440D01*
X127850000Y-99192440D01*
X128085317Y-99148162D01*
X128301441Y-99009090D01*
X128446431Y-98796890D01*
X128497440Y-98545000D01*
X128497440Y-95134651D01*
X129519254Y-95135543D01*
X130671915Y-94659273D01*
X131554574Y-93778153D01*
X132032854Y-92626326D01*
X132033943Y-91379146D01*
X131557673Y-90226485D01*
X130676553Y-89343826D01*
X129524726Y-88865546D01*
X128277546Y-88864457D01*
X127904500Y-89018597D01*
X127850000Y-89007560D01*
X90150000Y-89007560D01*
X89914683Y-89051838D01*
X89698559Y-89190910D01*
X89553569Y-89403110D01*
X89502560Y-89655000D01*
X89502560Y-92306170D01*
X89479598Y-92288948D01*
X89479687Y-92186216D01*
X89315689Y-91789311D01*
X89012286Y-91485378D01*
X88615668Y-91320687D01*
X88186216Y-91320313D01*
X87789311Y-91484311D01*
X87485378Y-91787714D01*
X87320687Y-92184332D01*
X87320313Y-92613784D01*
X87484311Y-93010689D01*
X87787714Y-93314622D01*
X88184332Y-93479313D01*
X88463400Y-93479556D01*
X88463400Y-94940507D01*
X88415668Y-94920687D01*
X87986216Y-94920313D01*
X87589311Y-95084311D01*
X87285378Y-95387714D01*
X87120687Y-95784332D01*
X87120313Y-96213784D01*
X87284311Y-96610689D01*
X87463400Y-96790091D01*
X87463400Y-100021690D01*
X86920855Y-99479145D01*
X86916699Y-99476368D01*
X86913865Y-99472247D01*
X86797346Y-99396619D01*
X86681885Y-99319470D01*
X86676982Y-99318495D01*
X86672787Y-99315772D01*
X86536186Y-99290489D01*
X86400000Y-99263400D01*
X86395097Y-99264375D01*
X86390180Y-99263465D01*
X79679556Y-99352940D01*
X79634203Y-99307507D01*
X80305110Y-98636600D01*
X82410002Y-98636600D01*
X82587714Y-98814622D01*
X82984332Y-98979313D01*
X83413784Y-98979687D01*
X83810689Y-98815689D01*
X84114622Y-98512286D01*
X84279313Y-98115668D01*
X84279687Y-97686216D01*
X84115689Y-97289311D01*
X83812286Y-96985378D01*
X83415668Y-96820687D01*
X82986216Y-96820313D01*
X82589311Y-96984311D01*
X82409909Y-97163400D01*
X80878310Y-97163400D01*
X81520855Y-96520855D01*
X81680530Y-96281885D01*
X81736600Y-96000000D01*
X81736600Y-95089998D01*
X81914622Y-94912286D01*
X82079313Y-94515668D01*
X82079687Y-94086216D01*
X81915689Y-93689311D01*
X81612286Y-93385378D01*
X81215668Y-93220687D01*
X80786216Y-93220313D01*
X80389311Y-93384311D01*
X80085378Y-93687714D01*
X79920687Y-94084332D01*
X79920313Y-94513784D01*
X80084311Y-94910689D01*
X80263400Y-95090091D01*
X80263400Y-95694890D01*
X78006384Y-97951906D01*
X78016709Y-97900000D01*
X78036601Y-97800000D01*
X78036600Y-97799995D01*
X78036600Y-94089998D01*
X78214622Y-93912286D01*
X78379313Y-93515668D01*
X78379687Y-93086216D01*
X78215689Y-92689311D01*
X77912286Y-92385378D01*
X77515668Y-92220687D01*
X77086216Y-92220313D01*
X76689311Y-92384311D01*
X76385378Y-92687714D01*
X76220687Y-93084332D01*
X76220313Y-93513784D01*
X76384311Y-93910689D01*
X76563400Y-94090091D01*
X76563400Y-97494890D01*
X66237758Y-107820532D01*
X65986216Y-107820313D01*
X65589311Y-107984311D01*
X65285378Y-108287714D01*
X65120687Y-108684332D01*
X65120313Y-109113784D01*
X65201801Y-109311000D01*
X64189000Y-109311000D01*
X64189000Y-101537863D01*
X64214622Y-101512286D01*
X64379313Y-101115668D01*
X64379346Y-101077890D01*
X65068236Y-100389000D01*
X67962485Y-100389000D01*
X68187714Y-100614622D01*
X68584332Y-100779313D01*
X69013784Y-100779687D01*
X69410689Y-100615689D01*
X69714622Y-100312286D01*
X69879313Y-99915668D01*
X69879687Y-99486216D01*
X69715689Y-99089311D01*
X69412286Y-98785378D01*
X69015668Y-98620687D01*
X68647086Y-98620366D01*
X68600000Y-98611000D01*
X65379317Y-98611000D01*
X65379687Y-98186216D01*
X65215689Y-97789311D01*
X64912286Y-97485378D01*
X64515668Y-97320687D01*
X64262176Y-97320466D01*
X63284108Y-96342398D01*
X63464376Y-96162444D01*
X63484311Y-96210689D01*
X63787714Y-96514622D01*
X64184332Y-96679313D01*
X64613784Y-96679687D01*
X65010689Y-96515689D01*
X65314622Y-96212286D01*
X65479313Y-95815668D01*
X65479687Y-95386216D01*
X65315689Y-94989311D01*
X65012286Y-94685378D01*
X64615668Y-94520687D01*
X64367617Y-94520471D01*
X55554405Y-85620854D01*
X69864457Y-85620854D01*
X70340727Y-86773515D01*
X71221847Y-87656174D01*
X72373674Y-88134454D01*
X73620854Y-88135543D01*
X74773515Y-87659273D01*
X75656174Y-86778153D01*
X76134454Y-85626326D01*
X76134546Y-85520854D01*
X92764457Y-85520854D01*
X93240727Y-86673515D01*
X94121847Y-87556174D01*
X95273674Y-88034454D01*
X96520854Y-88035543D01*
X97673515Y-87559273D01*
X98556174Y-86678153D01*
X98953678Y-85720854D01*
X114964457Y-85720854D01*
X115440727Y-86873515D01*
X116321847Y-87756174D01*
X117473674Y-88234454D01*
X118720854Y-88235543D01*
X119873515Y-87759273D01*
X120756174Y-86878153D01*
X121234454Y-85726326D01*
X121235543Y-84479146D01*
X120759273Y-83326485D01*
X119878153Y-82443826D01*
X118726326Y-81965546D01*
X117479146Y-81964457D01*
X116326485Y-82440727D01*
X115443826Y-83321847D01*
X114965546Y-84473674D01*
X114964457Y-85720854D01*
X98953678Y-85720854D01*
X99034454Y-85526326D01*
X99035543Y-84279146D01*
X98559273Y-83126485D01*
X97678153Y-82243826D01*
X96526326Y-81765546D01*
X95279146Y-81764457D01*
X94126485Y-82240727D01*
X93243826Y-83121847D01*
X92765546Y-84273674D01*
X92764457Y-85520854D01*
X76134546Y-85520854D01*
X76135543Y-84379146D01*
X75659273Y-83226485D01*
X74778153Y-82343826D01*
X73626326Y-81865546D01*
X72379146Y-81864457D01*
X71226485Y-82340727D01*
X70343826Y-83221847D01*
X69865546Y-84373674D01*
X69864457Y-85620854D01*
X55554405Y-85620854D01*
X54936600Y-84996993D01*
X54936600Y-67100000D01*
X54880530Y-66818115D01*
X54720855Y-66579145D01*
X52836600Y-64694890D01*
X52836600Y-62789998D01*
X53014622Y-62612286D01*
X53179313Y-62215668D01*
X53179687Y-61786216D01*
X53015689Y-61389311D01*
X52712286Y-61085378D01*
X52315668Y-60920687D01*
X51886216Y-60920313D01*
X51489311Y-61084311D01*
X51185378Y-61387714D01*
X51020687Y-61784332D01*
X51020313Y-62213784D01*
X51184311Y-62610689D01*
X51363400Y-62790091D01*
X51363400Y-65000000D01*
X51419470Y-65281885D01*
X51579145Y-65520855D01*
X53463400Y-67405110D01*
X53463400Y-72721690D01*
X53036600Y-72294890D01*
X53036600Y-69589998D01*
X53214622Y-69412286D01*
X53379313Y-69015668D01*
X53379687Y-68586216D01*
X53215689Y-68189311D01*
X52912286Y-67885378D01*
X52515668Y-67720687D01*
X52086216Y-67720313D01*
X51689311Y-67884311D01*
X51385378Y-68187714D01*
X51220687Y-68584332D01*
X51220313Y-69013784D01*
X51384311Y-69410689D01*
X51563400Y-69590091D01*
X51563400Y-72600000D01*
X51619470Y-72881885D01*
X51779145Y-73120855D01*
X52263400Y-73605110D01*
X52263400Y-74020641D01*
X51886216Y-74020313D01*
X51489311Y-74184311D01*
X51185378Y-74487714D01*
X51020687Y-74884332D01*
X51020313Y-75313784D01*
X51184311Y-75710689D01*
X51363400Y-75890091D01*
X51363400Y-86200000D01*
X51419470Y-86481885D01*
X51579145Y-86720855D01*
X63220532Y-98362242D01*
X63220313Y-98613784D01*
X63384311Y-99010689D01*
X63657954Y-99284810D01*
X63350000Y-99592764D01*
X61128618Y-97371382D01*
X60840206Y-97178671D01*
X60500000Y-97111000D01*
X54168236Y-97111000D01*
X50928618Y-93871382D01*
X50640206Y-93678671D01*
X50300000Y-93611000D01*
X48630693Y-93611000D01*
X48603162Y-93464683D01*
X48470000Y-93257743D01*
X48470000Y-92500005D01*
X48470001Y-92500000D01*
X48373327Y-92013992D01*
X48098026Y-91601974D01*
X39470000Y-82973948D01*
X39470000Y-79801942D01*
X39583354Y-80371810D01*
X39941246Y-80907433D01*
X40476869Y-81265325D01*
X41108679Y-81391000D01*
X41691321Y-81391000D01*
X42323131Y-81265325D01*
X42858754Y-80907433D01*
X43216646Y-80371810D01*
X43342321Y-79740000D01*
X43216646Y-79108190D01*
X42858754Y-78572567D01*
X42705252Y-78470000D01*
X42858754Y-78367433D01*
X43216646Y-77831810D01*
X43342321Y-77200000D01*
X43216646Y-76568190D01*
X42858754Y-76032567D01*
X42684219Y-75915946D01*
X42911236Y-75737630D01*
X43227926Y-75174477D01*
X43259975Y-75042944D01*
X43140836Y-74787000D01*
X41527000Y-74787000D01*
X41527000Y-74807000D01*
X41273000Y-74807000D01*
X41273000Y-74787000D01*
X39659164Y-74787000D01*
X39540025Y-75042944D01*
X39572074Y-75174477D01*
X39888764Y-75737630D01*
X40115781Y-75915946D01*
X40094748Y-75930000D01*
X39100000Y-75930000D01*
X38613992Y-76026673D01*
X38201974Y-76301974D01*
X38201972Y-76301977D01*
X37301974Y-77201974D01*
X37026673Y-77613992D01*
X36929999Y-78100000D01*
X35825500Y-78100000D01*
X35825500Y-74277056D01*
X39540025Y-74277056D01*
X39659164Y-74533000D01*
X41273000Y-74533000D01*
X41273000Y-73009000D01*
X41527000Y-73009000D01*
X41527000Y-74533000D01*
X43140836Y-74533000D01*
X43259975Y-74277056D01*
X43227926Y-74145523D01*
X42911236Y-73582370D01*
X42403143Y-73183276D01*
X41781000Y-73009000D01*
X41527000Y-73009000D01*
X41273000Y-73009000D01*
X41019000Y-73009000D01*
X40396857Y-73183276D01*
X39888764Y-73582370D01*
X39572074Y-74145523D01*
X39540025Y-74277056D01*
X35825500Y-74277056D01*
X35825500Y-66840000D01*
X36957679Y-66840000D01*
X37083354Y-67471810D01*
X37441246Y-68007433D01*
X37976869Y-68365325D01*
X38608679Y-68491000D01*
X39191321Y-68491000D01*
X39823131Y-68365325D01*
X40358754Y-68007433D01*
X40716646Y-67471810D01*
X40842321Y-66840000D01*
X40716646Y-66208190D01*
X40358754Y-65672567D01*
X40184219Y-65555946D01*
X40411236Y-65377630D01*
X40727926Y-64814477D01*
X40759975Y-64682944D01*
X40640836Y-64427000D01*
X39027000Y-64427000D01*
X39027000Y-64447000D01*
X38773000Y-64447000D01*
X38773000Y-64427000D01*
X37159164Y-64427000D01*
X37040025Y-64682944D01*
X37072074Y-64814477D01*
X37388764Y-65377630D01*
X37615781Y-65555946D01*
X37441246Y-65672567D01*
X37083354Y-66208190D01*
X36957679Y-66840000D01*
X35825500Y-66840000D01*
X35825500Y-61760000D01*
X36957679Y-61760000D01*
X37083354Y-62391810D01*
X37441246Y-62927433D01*
X37615781Y-63044054D01*
X37388764Y-63222370D01*
X37072074Y-63785523D01*
X37040025Y-63917056D01*
X37159164Y-64173000D01*
X38773000Y-64173000D01*
X38773000Y-64153000D01*
X39027000Y-64153000D01*
X39027000Y-64173000D01*
X40640836Y-64173000D01*
X40759975Y-63917056D01*
X40727926Y-63785523D01*
X40411236Y-63222370D01*
X40184219Y-63044054D01*
X40358754Y-62927433D01*
X40716646Y-62391810D01*
X40842321Y-61760000D01*
X40716646Y-61128190D01*
X40358754Y-60592567D01*
X39823131Y-60234675D01*
X39191321Y-60109000D01*
X38608679Y-60109000D01*
X37976869Y-60234675D01*
X37441246Y-60592567D01*
X37083354Y-61128190D01*
X36957679Y-61760000D01*
X35825500Y-61760000D01*
X35825500Y-57713784D01*
X55220313Y-57713784D01*
X55384311Y-58110689D01*
X55687714Y-58414622D01*
X56084332Y-58579313D01*
X56513784Y-58579687D01*
X56763400Y-58476548D01*
X56763400Y-64520380D01*
X56686216Y-64520313D01*
X56289311Y-64684311D01*
X55985378Y-64987714D01*
X55820687Y-65384332D01*
X55820313Y-65813784D01*
X55984311Y-66210689D01*
X56287714Y-66514622D01*
X56684332Y-66679313D01*
X57113784Y-66679687D01*
X57510689Y-66515689D01*
X57763400Y-66263419D01*
X57763400Y-71020380D01*
X57686216Y-71020313D01*
X57289311Y-71184311D01*
X56985378Y-71487714D01*
X56820687Y-71884332D01*
X56820313Y-72313784D01*
X56984311Y-72710689D01*
X57287714Y-73014622D01*
X57684332Y-73179313D01*
X58113784Y-73179687D01*
X58510689Y-73015689D01*
X58814622Y-72712286D01*
X58979313Y-72315668D01*
X58979534Y-72062176D01*
X59020855Y-72020855D01*
X59180530Y-71781885D01*
X59236600Y-71500000D01*
X59236600Y-71021509D01*
X59340727Y-71273515D01*
X59352560Y-71285369D01*
X59352560Y-77500000D01*
X59396838Y-77735317D01*
X59535910Y-77951441D01*
X59748110Y-78096431D01*
X60000000Y-78147440D01*
X62002560Y-78147440D01*
X62002560Y-79745000D01*
X62046838Y-79980317D01*
X62185910Y-80196441D01*
X62398110Y-80341431D01*
X62650000Y-80392440D01*
X75350000Y-80392440D01*
X75585317Y-80348162D01*
X75801441Y-80209090D01*
X75946431Y-79996890D01*
X75997440Y-79745000D01*
X75997440Y-78147440D01*
X78000000Y-78147440D01*
X78235317Y-78103162D01*
X78451441Y-77964090D01*
X78596431Y-77751890D01*
X78647440Y-77500000D01*
X78647440Y-59500000D01*
X82352560Y-59500000D01*
X82352560Y-77500000D01*
X82396838Y-77735317D01*
X82535910Y-77951441D01*
X82748110Y-78096431D01*
X83000000Y-78147440D01*
X85002560Y-78147440D01*
X85002560Y-79745000D01*
X85046838Y-79980317D01*
X85185910Y-80196441D01*
X85398110Y-80341431D01*
X85650000Y-80392440D01*
X98350000Y-80392440D01*
X98585317Y-80348162D01*
X98801441Y-80209090D01*
X98946431Y-79996890D01*
X98997440Y-79745000D01*
X98997440Y-78147440D01*
X101000000Y-78147440D01*
X101235317Y-78103162D01*
X101451441Y-77964090D01*
X101596431Y-77751890D01*
X101647440Y-77500000D01*
X101647440Y-59500000D01*
X105352560Y-59500000D01*
X105352560Y-77500000D01*
X105396838Y-77735317D01*
X105535910Y-77951441D01*
X105748110Y-78096431D01*
X106000000Y-78147440D01*
X108002560Y-78147440D01*
X108002560Y-79745000D01*
X108046838Y-79980317D01*
X108185910Y-80196441D01*
X108398110Y-80341431D01*
X108650000Y-80392440D01*
X121350000Y-80392440D01*
X121585317Y-80348162D01*
X121801441Y-80209090D01*
X121946431Y-79996890D01*
X121997440Y-79745000D01*
X121997440Y-79235880D01*
X126689725Y-79235880D01*
X126971421Y-79658564D01*
X128123892Y-80135294D01*
X129371072Y-80134705D01*
X130520579Y-79658564D01*
X130802275Y-79235880D01*
X128746000Y-77179605D01*
X126689725Y-79235880D01*
X121997440Y-79235880D01*
X121997440Y-78147440D01*
X124000000Y-78147440D01*
X124235317Y-78103162D01*
X124451441Y-77964090D01*
X124596431Y-77751890D01*
X124647440Y-77500000D01*
X124647440Y-76377892D01*
X125610706Y-76377892D01*
X125611295Y-77625072D01*
X126087436Y-78774579D01*
X126510120Y-79056275D01*
X128566395Y-77000000D01*
X128925605Y-77000000D01*
X130981880Y-79056275D01*
X131404564Y-78774579D01*
X131881294Y-77622108D01*
X131880705Y-76374928D01*
X131404564Y-75225421D01*
X130981880Y-74943725D01*
X128925605Y-77000000D01*
X128566395Y-77000000D01*
X126510120Y-74943725D01*
X126087436Y-75225421D01*
X125610706Y-76377892D01*
X124647440Y-76377892D01*
X124647440Y-74764120D01*
X126689725Y-74764120D01*
X128746000Y-76820395D01*
X130802275Y-74764120D01*
X130520579Y-74341436D01*
X129368108Y-73864706D01*
X128120928Y-73865295D01*
X126971421Y-74341436D01*
X126689725Y-74764120D01*
X124647440Y-74764120D01*
X124647440Y-71286872D01*
X124656174Y-71278153D01*
X125134454Y-70126326D01*
X125135543Y-68879146D01*
X124659273Y-67726485D01*
X124647440Y-67714631D01*
X124647440Y-62620854D01*
X125864457Y-62620854D01*
X126340727Y-63773515D01*
X127221847Y-64656174D01*
X128373674Y-65134454D01*
X129620854Y-65135543D01*
X130773515Y-64659273D01*
X131656174Y-63778153D01*
X132134454Y-62626326D01*
X132135543Y-61379146D01*
X131659273Y-60226485D01*
X130778153Y-59343826D01*
X129626326Y-58865546D01*
X128379146Y-58864457D01*
X128034994Y-59006658D01*
X128035179Y-58795029D01*
X127877942Y-58414485D01*
X127587046Y-58123081D01*
X127206777Y-57965180D01*
X126795029Y-57964821D01*
X126414485Y-58122058D01*
X126123081Y-58412954D01*
X125965180Y-58793223D01*
X125964821Y-59204971D01*
X126122058Y-59585515D01*
X126412954Y-59876919D01*
X126608159Y-59957975D01*
X126343826Y-60221847D01*
X125865546Y-61373674D01*
X125864457Y-62620854D01*
X124647440Y-62620854D01*
X124647440Y-59500000D01*
X124603162Y-59264683D01*
X124464090Y-59048559D01*
X124251890Y-58903569D01*
X124000000Y-58852560D01*
X106000000Y-58852560D01*
X105764683Y-58896838D01*
X105548559Y-59035910D01*
X105403569Y-59248110D01*
X105352560Y-59500000D01*
X101647440Y-59500000D01*
X101603162Y-59264683D01*
X101464090Y-59048559D01*
X101251890Y-58903569D01*
X101000000Y-58852560D01*
X83000000Y-58852560D01*
X82764683Y-58896838D01*
X82548559Y-59035910D01*
X82403569Y-59248110D01*
X82352560Y-59500000D01*
X78647440Y-59500000D01*
X78603162Y-59264683D01*
X78464090Y-59048559D01*
X78251890Y-58903569D01*
X78000000Y-58852560D01*
X60000000Y-58852560D01*
X59764683Y-58896838D01*
X59548559Y-59035910D01*
X59403569Y-59248110D01*
X59352560Y-59500000D01*
X59352560Y-67713128D01*
X59343826Y-67721847D01*
X59236600Y-67980076D01*
X59236600Y-59205110D01*
X60105110Y-58336600D01*
X114410002Y-58336600D01*
X114587714Y-58514622D01*
X114984332Y-58679313D01*
X115413784Y-58679687D01*
X115810689Y-58515689D01*
X116114622Y-58212286D01*
X116279313Y-57815668D01*
X116279687Y-57386216D01*
X116115689Y-56989311D01*
X115812286Y-56685378D01*
X115415668Y-56520687D01*
X114986216Y-56520313D01*
X114589311Y-56684311D01*
X114409909Y-56863400D01*
X93659493Y-56863400D01*
X93679313Y-56815668D01*
X93679687Y-56386216D01*
X93515689Y-55989311D01*
X93212286Y-55685378D01*
X92815668Y-55520687D01*
X92386216Y-55520313D01*
X91989311Y-55684311D01*
X91709734Y-55963400D01*
X70776445Y-55963400D01*
X70879313Y-55715668D01*
X70879542Y-55452521D01*
X126714604Y-55452521D01*
X127061742Y-56292658D01*
X127703961Y-56935999D01*
X128543491Y-57284603D01*
X129452521Y-57285396D01*
X130292658Y-56938258D01*
X130935999Y-56296039D01*
X131284603Y-55456509D01*
X131285396Y-54547479D01*
X130938258Y-53707342D01*
X130296039Y-53064001D01*
X129456509Y-52715397D01*
X128547479Y-52714604D01*
X127707342Y-53061742D01*
X127064001Y-53703961D01*
X126715397Y-54543491D01*
X126714604Y-55452521D01*
X70879542Y-55452521D01*
X70879687Y-55286216D01*
X70715689Y-54889311D01*
X70412286Y-54585378D01*
X70015668Y-54420687D01*
X69586216Y-54420313D01*
X69189311Y-54584311D01*
X69009909Y-54763400D01*
X58300000Y-54763400D01*
X58018115Y-54819470D01*
X57779145Y-54979145D01*
X56337758Y-56420532D01*
X56086216Y-56420313D01*
X55689311Y-56584311D01*
X55385378Y-56887714D01*
X55220687Y-57284332D01*
X55220313Y-57713784D01*
X35825500Y-57713784D01*
X35825500Y-55452521D01*
X37714604Y-55452521D01*
X38061742Y-56292658D01*
X38703961Y-56935999D01*
X39543491Y-57284603D01*
X40452521Y-57285396D01*
X41292658Y-56938258D01*
X41935999Y-56296039D01*
X42284603Y-55456509D01*
X42285396Y-54547479D01*
X41938258Y-53707342D01*
X41935892Y-53704971D01*
X67964821Y-53704971D01*
X68122058Y-54085515D01*
X68412954Y-54376919D01*
X68793223Y-54534820D01*
X69204971Y-54535179D01*
X69585515Y-54377942D01*
X69876919Y-54087046D01*
X70034820Y-53706777D01*
X70034821Y-53704971D01*
X87964821Y-53704971D01*
X88122058Y-54085515D01*
X88412954Y-54376919D01*
X88793223Y-54534820D01*
X89204971Y-54535179D01*
X89585515Y-54377942D01*
X89876919Y-54087046D01*
X90000108Y-53790373D01*
X90122058Y-54085515D01*
X90412954Y-54376919D01*
X90793223Y-54534820D01*
X91204971Y-54535179D01*
X91585515Y-54377942D01*
X91876919Y-54087046D01*
X92034820Y-53706777D01*
X92034821Y-53704971D01*
X110964821Y-53704971D01*
X111122058Y-54085515D01*
X111412954Y-54376919D01*
X111793223Y-54534820D01*
X112204971Y-54535179D01*
X112585515Y-54377942D01*
X112876919Y-54087046D01*
X113000108Y-53790373D01*
X113122058Y-54085515D01*
X113412954Y-54376919D01*
X113793223Y-54534820D01*
X114204971Y-54535179D01*
X114585515Y-54377942D01*
X114876919Y-54087046D01*
X115034820Y-53706777D01*
X115034821Y-53704971D01*
X118964821Y-53704971D01*
X119122058Y-54085515D01*
X119412954Y-54376919D01*
X119793223Y-54534820D01*
X120204971Y-54535179D01*
X120585515Y-54377942D01*
X120876919Y-54087046D01*
X121000108Y-53790373D01*
X121122058Y-54085515D01*
X121412954Y-54376919D01*
X121793223Y-54534820D01*
X122204971Y-54535179D01*
X122585515Y-54377942D01*
X122876919Y-54087046D01*
X123034820Y-53706777D01*
X123035179Y-53295029D01*
X122877942Y-52914485D01*
X122587046Y-52623081D01*
X122206777Y-52465180D01*
X121795029Y-52464821D01*
X121414485Y-52622058D01*
X121123081Y-52912954D01*
X120999892Y-53209627D01*
X120877942Y-52914485D01*
X120587046Y-52623081D01*
X120206777Y-52465180D01*
X119795029Y-52464821D01*
X119414485Y-52622058D01*
X119123081Y-52912954D01*
X118965180Y-53293223D01*
X118964821Y-53704971D01*
X115034821Y-53704971D01*
X115035179Y-53295029D01*
X114877942Y-52914485D01*
X114587046Y-52623081D01*
X114206777Y-52465180D01*
X113795029Y-52464821D01*
X113414485Y-52622058D01*
X113123081Y-52912954D01*
X112999892Y-53209627D01*
X112877942Y-52914485D01*
X112587046Y-52623081D01*
X112206777Y-52465180D01*
X111795029Y-52464821D01*
X111414485Y-52622058D01*
X111123081Y-52912954D01*
X110965180Y-53293223D01*
X110964821Y-53704971D01*
X92034821Y-53704971D01*
X92035179Y-53295029D01*
X91877942Y-52914485D01*
X91587046Y-52623081D01*
X91206777Y-52465180D01*
X90795029Y-52464821D01*
X90414485Y-52622058D01*
X90123081Y-52912954D01*
X89999892Y-53209627D01*
X89877942Y-52914485D01*
X89587046Y-52623081D01*
X89206777Y-52465180D01*
X88795029Y-52464821D01*
X88414485Y-52622058D01*
X88123081Y-52912954D01*
X87965180Y-53293223D01*
X87964821Y-53704971D01*
X70034821Y-53704971D01*
X70035179Y-53295029D01*
X69877942Y-52914485D01*
X69587046Y-52623081D01*
X69206777Y-52465180D01*
X68795029Y-52464821D01*
X68414485Y-52622058D01*
X68123081Y-52912954D01*
X67965180Y-53293223D01*
X67964821Y-53704971D01*
X41935892Y-53704971D01*
X41296039Y-53064001D01*
X40456509Y-52715397D01*
X39547479Y-52714604D01*
X38707342Y-53061742D01*
X38064001Y-53703961D01*
X37715397Y-54543491D01*
X37714604Y-55452521D01*
X35825500Y-55452521D01*
X35825500Y-50825500D01*
X134174500Y-50825500D01*
X134174500Y-149174500D01*
X134174500Y-149174500D01*
G37*
X134174500Y-149174500D02*
X35825500Y-149174500D01*
X35825500Y-144452521D01*
X37714604Y-144452521D01*
X38061742Y-145292658D01*
X38703961Y-145935999D01*
X39543491Y-146284603D01*
X40452521Y-146285396D01*
X40572358Y-146235880D01*
X44943725Y-146235880D01*
X45225421Y-146658564D01*
X46377892Y-147135294D01*
X47625072Y-147134705D01*
X48774579Y-146658564D01*
X49056275Y-146235880D01*
X47000000Y-144179605D01*
X44943725Y-146235880D01*
X40572358Y-146235880D01*
X41292658Y-145938258D01*
X41935999Y-145296039D01*
X42284603Y-144456509D01*
X42285396Y-143547479D01*
X42215324Y-143377892D01*
X43864706Y-143377892D01*
X43865295Y-144625072D01*
X44341436Y-145774579D01*
X44764120Y-146056275D01*
X46820395Y-144000000D01*
X47179605Y-144000000D01*
X49235880Y-146056275D01*
X49658564Y-145774579D01*
X50135294Y-144622108D01*
X50134705Y-143374928D01*
X49658564Y-142225421D01*
X49235880Y-141943725D01*
X47179605Y-144000000D01*
X46820395Y-144000000D01*
X44764120Y-141943725D01*
X44341436Y-142225421D01*
X43864706Y-143377892D01*
X42215324Y-143377892D01*
X41938258Y-142707342D01*
X41296039Y-142064001D01*
X40573847Y-141764120D01*
X44943725Y-141764120D01*
X47000000Y-143820395D01*
X49056275Y-141764120D01*
X48774579Y-141341436D01*
X48241334Y-141120854D01*
X58864457Y-141120854D01*
X59331572Y-142251358D01*
X58865546Y-143373674D01*
X58864457Y-144620854D01*
X59340727Y-145773515D01*
X60221847Y-146656174D01*
X61373674Y-147134454D01*
X62620854Y-147135543D01*
X63773515Y-146659273D01*
X64146758Y-146286680D01*
X74943725Y-146286680D01*
X75225421Y-146709364D01*
X76377892Y-147186094D01*
X77625072Y-147185505D01*
X78774579Y-146709364D01*
X79056275Y-146286680D01*
X77000000Y-144230405D01*
X74943725Y-146286680D01*
X64146758Y-146286680D01*
X64656174Y-145778153D01*
X65134454Y-144626326D01*
X65135499Y-143428692D01*
X73864706Y-143428692D01*
X73865295Y-144675872D01*
X74341436Y-145825379D01*
X74764120Y-146107075D01*
X76820395Y-144050800D01*
X77179605Y-144050800D01*
X79235880Y-146107075D01*
X79658564Y-145825379D01*
X80135294Y-144672908D01*
X80134705Y-143425728D01*
X79658564Y-142276221D01*
X79235880Y-141994525D01*
X77179605Y-144050800D01*
X76820395Y-144050800D01*
X74764120Y-141994525D01*
X74341436Y-142276221D01*
X73864706Y-143428692D01*
X65135499Y-143428692D01*
X65135543Y-143379146D01*
X64668428Y-142248642D01*
X64848524Y-141814920D01*
X74943725Y-141814920D01*
X77000000Y-143871195D01*
X79056275Y-141814920D01*
X78774579Y-141392236D01*
X78118527Y-141120854D01*
X88864457Y-141120854D01*
X89310530Y-142200433D01*
X88865546Y-143272074D01*
X88864457Y-144519254D01*
X89340727Y-145671915D01*
X90221847Y-146554574D01*
X91373674Y-147032854D01*
X92620854Y-147033943D01*
X93773515Y-146557673D01*
X94350313Y-145981880D01*
X104943725Y-145981880D01*
X105225421Y-146404564D01*
X106377892Y-146881294D01*
X107625072Y-146880705D01*
X108774579Y-146404564D01*
X109056275Y-145981880D01*
X107000000Y-143925605D01*
X104943725Y-145981880D01*
X94350313Y-145981880D01*
X94656174Y-145676553D01*
X95134454Y-144524726D01*
X95135543Y-143277546D01*
X95072055Y-143123892D01*
X103864706Y-143123892D01*
X103865295Y-144371072D01*
X104341436Y-145520579D01*
X104764120Y-145802275D01*
X106820395Y-143746000D01*
X107179605Y-143746000D01*
X109235880Y-145802275D01*
X109658564Y-145520579D01*
X110135294Y-144368108D01*
X110134705Y-143120928D01*
X109658564Y-141971421D01*
X109235880Y-141689725D01*
X107179605Y-143746000D01*
X106820395Y-143746000D01*
X104764120Y-141689725D01*
X104341436Y-141971421D01*
X103864706Y-143123892D01*
X95072055Y-143123892D01*
X94689470Y-142197967D01*
X94975088Y-141510120D01*
X104943725Y-141510120D01*
X107000000Y-143566395D01*
X109056275Y-141510120D01*
X108796851Y-141120854D01*
X118864457Y-141120854D01*
X119331572Y-142251358D01*
X118865546Y-143373674D01*
X118864457Y-144620854D01*
X119340727Y-145773515D01*
X120221847Y-146656174D01*
X121373674Y-147134454D01*
X122620854Y-147135543D01*
X123773515Y-146659273D01*
X124656174Y-145778153D01*
X125134454Y-144626326D01*
X125134605Y-144452521D01*
X126714604Y-144452521D01*
X127061742Y-145292658D01*
X127703961Y-145935999D01*
X128543491Y-146284603D01*
X129452521Y-146285396D01*
X130292658Y-145938258D01*
X130935999Y-145296039D01*
X131284603Y-144456509D01*
X131285396Y-143547479D01*
X130938258Y-142707342D01*
X130296039Y-142064001D01*
X129456509Y-141715397D01*
X128547479Y-141714604D01*
X127707342Y-142061742D01*
X127064001Y-142703961D01*
X126715397Y-143543491D01*
X126714604Y-144452521D01*
X125134605Y-144452521D01*
X125135543Y-143379146D01*
X124668428Y-142248642D01*
X125134454Y-141126326D01*
X125135543Y-139879146D01*
X124869751Y-139235880D01*
X126943725Y-139235880D01*
X127225421Y-139658564D01*
X128377892Y-140135294D01*
X129625072Y-140134705D01*
X130774579Y-139658564D01*
X131056275Y-139235880D01*
X129000000Y-137179605D01*
X126943725Y-139235880D01*
X124869751Y-139235880D01*
X124659273Y-138726485D01*
X123778153Y-137843826D01*
X122626326Y-137365546D01*
X121379146Y-137364457D01*
X120226485Y-137840727D01*
X119343826Y-138721847D01*
X118865546Y-139873674D01*
X118864457Y-141120854D01*
X108796851Y-141120854D01*
X108774579Y-141087436D01*
X107622108Y-140610706D01*
X106374928Y-140611295D01*
X105225421Y-141087436D01*
X104943725Y-141510120D01*
X94975088Y-141510120D01*
X95134454Y-141126326D01*
X95135543Y-139879146D01*
X94659273Y-138726485D01*
X93778153Y-137843826D01*
X92626326Y-137365546D01*
X91379146Y-137364457D01*
X90226485Y-137840727D01*
X89343826Y-138721847D01*
X88865546Y-139873674D01*
X88864457Y-141120854D01*
X78118527Y-141120854D01*
X77622108Y-140915506D01*
X76374928Y-140916095D01*
X75225421Y-141392236D01*
X74943725Y-141814920D01*
X64848524Y-141814920D01*
X65134454Y-141126326D01*
X65135543Y-139879146D01*
X64659273Y-138726485D01*
X63778153Y-137843826D01*
X62626326Y-137365546D01*
X61379146Y-137364457D01*
X60226485Y-137840727D01*
X59343826Y-138721847D01*
X58865546Y-139873674D01*
X58864457Y-141120854D01*
X48241334Y-141120854D01*
X47622108Y-140864706D01*
X46374928Y-140865295D01*
X45225421Y-141341436D01*
X44943725Y-141764120D01*
X40573847Y-141764120D01*
X40456509Y-141715397D01*
X39547479Y-141714604D01*
X38707342Y-142061742D01*
X38064001Y-142703961D01*
X37715397Y-143543491D01*
X37714604Y-144452521D01*
X35825500Y-144452521D01*
X35825500Y-136377892D01*
X125864706Y-136377892D01*
X125865295Y-137625072D01*
X126341436Y-138774579D01*
X126764120Y-139056275D01*
X128820395Y-137000000D01*
X129179605Y-137000000D01*
X131235880Y-139056275D01*
X131658564Y-138774579D01*
X132135294Y-137622108D01*
X132134705Y-136374928D01*
X131658564Y-135225421D01*
X131235880Y-134943725D01*
X129179605Y-137000000D01*
X128820395Y-137000000D01*
X126764120Y-134943725D01*
X126341436Y-135225421D01*
X125864706Y-136377892D01*
X35825500Y-136377892D01*
X35825500Y-134764120D01*
X126943725Y-134764120D01*
X129000000Y-136820395D01*
X131056275Y-134764120D01*
X130774579Y-134341436D01*
X129622108Y-133864706D01*
X128374928Y-133865295D01*
X127225421Y-134341436D01*
X126943725Y-134764120D01*
X35825500Y-134764120D01*
X35825500Y-126611674D01*
X36900217Y-126611674D01*
X36914573Y-126683875D01*
X37174276Y-127161740D01*
X37597081Y-127503846D01*
X38118620Y-127658110D01*
X38873000Y-127658110D01*
X38873000Y-126397000D01*
X39127000Y-126397000D01*
X39127000Y-127658110D01*
X39881380Y-127658110D01*
X40402919Y-127503846D01*
X40825724Y-127161740D01*
X41085427Y-126683875D01*
X41099783Y-126611674D01*
X40977162Y-126397000D01*
X39127000Y-126397000D01*
X38873000Y-126397000D01*
X37022838Y-126397000D01*
X36900217Y-126611674D01*
X35825500Y-126611674D01*
X35825500Y-123730000D01*
X36815536Y-123730000D01*
X36921200Y-124261207D01*
X37222104Y-124711542D01*
X37672439Y-125012446D01*
X37675306Y-125013016D01*
X37597081Y-125036154D01*
X37174276Y-125378260D01*
X36914573Y-125856125D01*
X36900217Y-125928326D01*
X37022838Y-126143000D01*
X38873000Y-126143000D01*
X38873000Y-126123000D01*
X39127000Y-126123000D01*
X39127000Y-126143000D01*
X40977162Y-126143000D01*
X41099783Y-125928326D01*
X41085427Y-125856125D01*
X40825724Y-125378260D01*
X40402919Y-125036154D01*
X40324694Y-125013016D01*
X40327561Y-125012446D01*
X40777896Y-124711542D01*
X41078800Y-124261207D01*
X41184464Y-123730000D01*
X41078800Y-123198793D01*
X40777896Y-122748458D01*
X40327561Y-122447554D01*
X39796354Y-122341890D01*
X38203646Y-122341890D01*
X37672439Y-122447554D01*
X37222104Y-122748458D01*
X36921200Y-123198793D01*
X36815536Y-123730000D01*
X35825500Y-123730000D01*
X35825500Y-103656265D01*
X36064758Y-103656265D01*
X36276687Y-104169172D01*
X36668764Y-104561934D01*
X36880738Y-104649954D01*
X36670828Y-104736687D01*
X36278066Y-105128764D01*
X36065242Y-105641300D01*
X36064758Y-106196265D01*
X36276687Y-106709172D01*
X36668764Y-107101934D01*
X36880738Y-107189954D01*
X36670828Y-107276687D01*
X36278066Y-107668764D01*
X36065242Y-108181300D01*
X36064758Y-108736265D01*
X36276687Y-109249172D01*
X36668764Y-109641934D01*
X36880738Y-109729954D01*
X36670828Y-109816687D01*
X36278066Y-110208764D01*
X36065242Y-110721300D01*
X36064758Y-111276265D01*
X36276687Y-111789172D01*
X36668764Y-112181934D01*
X37181300Y-112394758D01*
X37736265Y-112395242D01*
X38249172Y-112183313D01*
X38605316Y-111827790D01*
X38636838Y-111995317D01*
X38775910Y-112211441D01*
X38988110Y-112356431D01*
X39240000Y-112407440D01*
X40760000Y-112407440D01*
X40995317Y-112363162D01*
X41211441Y-112224090D01*
X41356431Y-112011890D01*
X41407440Y-111760000D01*
X41407440Y-110240000D01*
X41363162Y-110004683D01*
X41224090Y-109788559D01*
X41011890Y-109643569D01*
X40760000Y-109592560D01*
X40755166Y-109592560D01*
X40799159Y-109438764D01*
X40000000Y-108639605D01*
X39200841Y-109438764D01*
X39244834Y-109592560D01*
X39240000Y-109592560D01*
X39004683Y-109636838D01*
X38788559Y-109775910D01*
X38643569Y-109988110D01*
X38606031Y-110173480D01*
X38251236Y-109818066D01*
X38039262Y-109730046D01*
X38249172Y-109643313D01*
X38641934Y-109251236D01*
X38723391Y-109055066D01*
X38779258Y-109189941D01*
X39021236Y-109259159D01*
X39820395Y-108460000D01*
X40179605Y-108460000D01*
X40978764Y-109259159D01*
X41220742Y-109189941D01*
X41407155Y-108667220D01*
X41379341Y-108112951D01*
X41220742Y-107730059D01*
X40978764Y-107660841D01*
X40179605Y-108460000D01*
X39820395Y-108460000D01*
X39021236Y-107660841D01*
X38779258Y-107730059D01*
X38727618Y-107874862D01*
X38643313Y-107670828D01*
X38251236Y-107278066D01*
X38039262Y-107190046D01*
X38249172Y-107103313D01*
X38641934Y-106711236D01*
X38729954Y-106499262D01*
X38816687Y-106709172D01*
X39208764Y-107101934D01*
X39404934Y-107183391D01*
X39270059Y-107239258D01*
X39200841Y-107481236D01*
X40000000Y-108280395D01*
X40799159Y-107481236D01*
X40729941Y-107239258D01*
X40585138Y-107187618D01*
X40789172Y-107103313D01*
X41181934Y-106711236D01*
X41394758Y-106198700D01*
X41395242Y-105643735D01*
X41183313Y-105130828D01*
X40791236Y-104738066D01*
X40579262Y-104650046D01*
X40789172Y-104563313D01*
X41181934Y-104171236D01*
X41394758Y-103658700D01*
X41395242Y-103103735D01*
X41183313Y-102590828D01*
X40791236Y-102198066D01*
X40595066Y-102116609D01*
X40729941Y-102060742D01*
X40799159Y-101818764D01*
X40000000Y-101019605D01*
X39200841Y-101818764D01*
X39270059Y-102060742D01*
X39414862Y-102112382D01*
X39210828Y-102196687D01*
X38818066Y-102588764D01*
X38730046Y-102800738D01*
X38643313Y-102590828D01*
X38251236Y-102198066D01*
X38055066Y-102116609D01*
X38189941Y-102060742D01*
X38259159Y-101818764D01*
X37460000Y-101019605D01*
X36660841Y-101818764D01*
X36730059Y-102060742D01*
X36874862Y-102112382D01*
X36670828Y-102196687D01*
X36278066Y-102588764D01*
X36065242Y-103101300D01*
X36064758Y-103656265D01*
X35825500Y-103656265D01*
X35825500Y-100632780D01*
X36052845Y-100632780D01*
X36080659Y-101187049D01*
X36239258Y-101569941D01*
X36481236Y-101639159D01*
X37280395Y-100840000D01*
X37639605Y-100840000D01*
X38438764Y-101639159D01*
X38680742Y-101569941D01*
X38726320Y-101442137D01*
X38779258Y-101569941D01*
X39021236Y-101639159D01*
X39820395Y-100840000D01*
X40179605Y-100840000D01*
X40978764Y-101639159D01*
X41220742Y-101569941D01*
X41407155Y-101047220D01*
X41379341Y-100492951D01*
X41220742Y-100110059D01*
X40978764Y-100040841D01*
X40179605Y-100840000D01*
X39820395Y-100840000D01*
X39021236Y-100040841D01*
X38779258Y-100110059D01*
X38733680Y-100237863D01*
X38680742Y-100110059D01*
X38438764Y-100040841D01*
X37639605Y-100840000D01*
X37280395Y-100840000D01*
X36481236Y-100040841D01*
X36239258Y-100110059D01*
X36052845Y-100632780D01*
X35825500Y-100632780D01*
X35825500Y-96036265D01*
X36064758Y-96036265D01*
X36276687Y-96549172D01*
X36668764Y-96941934D01*
X36880738Y-97029954D01*
X36670828Y-97116687D01*
X36278066Y-97508764D01*
X36065242Y-98021300D01*
X36064758Y-98576265D01*
X36276687Y-99089172D01*
X36668764Y-99481934D01*
X36864934Y-99563391D01*
X36730059Y-99619258D01*
X36660841Y-99861236D01*
X37460000Y-100660395D01*
X38259159Y-99861236D01*
X38189941Y-99619258D01*
X38045138Y-99567618D01*
X38249172Y-99483313D01*
X38641934Y-99091236D01*
X38729954Y-98879262D01*
X38816687Y-99089172D01*
X39208764Y-99481934D01*
X39404934Y-99563391D01*
X39270059Y-99619258D01*
X39200841Y-99861236D01*
X40000000Y-100660395D01*
X40799159Y-99861236D01*
X40729941Y-99619258D01*
X40585138Y-99567618D01*
X40789172Y-99483313D01*
X41181934Y-99091236D01*
X41394758Y-98578700D01*
X41395242Y-98023735D01*
X41183313Y-97510828D01*
X40791236Y-97118066D01*
X40579262Y-97030046D01*
X40789172Y-96943313D01*
X41181934Y-96551236D01*
X41394758Y-96038700D01*
X41395242Y-95483735D01*
X41183313Y-94970828D01*
X40791236Y-94578066D01*
X40278700Y-94365242D01*
X39723735Y-94364758D01*
X39210828Y-94576687D01*
X38818066Y-94968764D01*
X38730046Y-95180738D01*
X38643313Y-94970828D01*
X38251236Y-94578066D01*
X37738700Y-94365242D01*
X37183735Y-94364758D01*
X36670828Y-94576687D01*
X36278066Y-94968764D01*
X36065242Y-95481300D01*
X36064758Y-96036265D01*
X35825500Y-96036265D01*
X35825500Y-90471500D01*
X38154060Y-90471500D01*
X38154060Y-91868500D01*
X38198338Y-92103817D01*
X38337410Y-92319941D01*
X38549610Y-92464931D01*
X38801500Y-92515940D01*
X40198500Y-92515940D01*
X40433817Y-92471662D01*
X40649941Y-92332590D01*
X40794931Y-92120390D01*
X40845940Y-91868500D01*
X40845940Y-90471500D01*
X40801662Y-90236183D01*
X40662590Y-90020059D01*
X40450390Y-89875069D01*
X40198500Y-89824060D01*
X40102116Y-89824060D01*
X40254380Y-89761146D01*
X40629827Y-89386353D01*
X40833268Y-88896413D01*
X40833731Y-88365914D01*
X40631146Y-87875620D01*
X40256353Y-87500173D01*
X39766413Y-87296732D01*
X39235914Y-87296269D01*
X38745620Y-87498854D01*
X38370173Y-87873647D01*
X38166732Y-88363587D01*
X38166269Y-88894086D01*
X38368854Y-89384380D01*
X38743647Y-89759827D01*
X38898337Y-89824060D01*
X38801500Y-89824060D01*
X38566183Y-89868338D01*
X38350059Y-90007410D01*
X38205069Y-90219610D01*
X38154060Y-90471500D01*
X35825500Y-90471500D01*
X35825500Y-78100000D01*
X36929999Y-78100000D01*
X36930000Y-78100005D01*
X36930000Y-83499995D01*
X36929999Y-83500000D01*
X37026673Y-83986008D01*
X37301974Y-84398026D01*
X45930000Y-93026052D01*
X45930000Y-93263072D01*
X45803569Y-93448110D01*
X45752560Y-93700000D01*
X45752560Y-95300000D01*
X45796838Y-95535317D01*
X45935910Y-95751441D01*
X46148110Y-95896431D01*
X46292375Y-95925645D01*
X46185302Y-95997189D01*
X45874233Y-96462736D01*
X45765000Y-97011887D01*
X45765000Y-97068113D01*
X45874233Y-97617264D01*
X46185302Y-98082811D01*
X46525314Y-98310000D01*
X46185302Y-98537189D01*
X45874233Y-99002736D01*
X45765000Y-99551887D01*
X45765000Y-99608113D01*
X45874233Y-100157264D01*
X46185302Y-100622811D01*
X46525314Y-100850000D01*
X46185302Y-101077189D01*
X45874233Y-101542736D01*
X45765000Y-102091887D01*
X45765000Y-102148113D01*
X45874233Y-102697264D01*
X46185302Y-103162811D01*
X46525314Y-103390000D01*
X46185302Y-103617189D01*
X45874233Y-104082736D01*
X45765000Y-104631887D01*
X45765000Y-104688113D01*
X45874233Y-105237264D01*
X46185302Y-105702811D01*
X46525314Y-105930000D01*
X46185302Y-106157189D01*
X45874233Y-106622736D01*
X45765000Y-107171887D01*
X45765000Y-107228113D01*
X45874233Y-107777264D01*
X46185302Y-108242811D01*
X46525314Y-108470000D01*
X46185302Y-108697189D01*
X45874233Y-109162736D01*
X45765000Y-109711887D01*
X45765000Y-109768113D01*
X45874233Y-110317264D01*
X46185302Y-110782811D01*
X46525314Y-111010000D01*
X46185302Y-111237189D01*
X45874233Y-111702736D01*
X45765000Y-112251887D01*
X45765000Y-112308113D01*
X45874233Y-112857264D01*
X46185302Y-113322811D01*
X46525314Y-113550000D01*
X46185302Y-113777189D01*
X45874233Y-114242736D01*
X45765000Y-114791887D01*
X45765000Y-114848113D01*
X45874233Y-115397264D01*
X46185302Y-115862811D01*
X46650849Y-116173880D01*
X47200000Y-116283113D01*
X47749151Y-116173880D01*
X48214698Y-115862811D01*
X48525767Y-115397264D01*
X48635000Y-114848113D01*
X48635000Y-114791887D01*
X48525767Y-114242736D01*
X48214698Y-113777189D01*
X47874686Y-113550000D01*
X48214698Y-113322811D01*
X48525767Y-112857264D01*
X48635000Y-112308113D01*
X48635000Y-112251887D01*
X48525767Y-111702736D01*
X48214698Y-111237189D01*
X47874686Y-111010000D01*
X48214698Y-110782811D01*
X48525767Y-110317264D01*
X48635000Y-109768113D01*
X48635000Y-109711887D01*
X48525767Y-109162736D01*
X48214698Y-108697189D01*
X47874686Y-108470000D01*
X48214698Y-108242811D01*
X48419302Y-107936600D01*
X51100270Y-107936600D01*
X58661800Y-115311425D01*
X58585378Y-115387714D01*
X58420687Y-115784332D01*
X58420313Y-116213784D01*
X58561147Y-116554629D01*
X58489311Y-116584311D01*
X58185378Y-116887714D01*
X58020687Y-117284332D01*
X58020313Y-117713784D01*
X58184311Y-118110689D01*
X58487714Y-118414622D01*
X58884332Y-118579313D01*
X59313784Y-118579687D01*
X59710689Y-118415689D01*
X60014622Y-118112286D01*
X60179313Y-117715668D01*
X60179534Y-117462176D01*
X60920855Y-116720855D01*
X60948725Y-116679145D01*
X61080530Y-116481885D01*
X61136600Y-116200000D01*
X61136600Y-115300000D01*
X61080530Y-115018115D01*
X60920855Y-114779145D01*
X50280855Y-104139145D01*
X50041885Y-103979470D01*
X49760000Y-103923400D01*
X48419302Y-103923400D01*
X48214698Y-103617189D01*
X47874686Y-103390000D01*
X48214698Y-103162811D01*
X48525767Y-102697264D01*
X48635000Y-102148113D01*
X48635000Y-102091887D01*
X48525767Y-101542736D01*
X48214698Y-101077189D01*
X47874686Y-100850000D01*
X48214698Y-100622811D01*
X48419302Y-100316600D01*
X56374890Y-100316600D01*
X56663400Y-100605110D01*
X56663400Y-101940643D01*
X56520687Y-102284332D01*
X56520313Y-102713784D01*
X56684311Y-103110689D01*
X56987714Y-103414622D01*
X57384332Y-103579313D01*
X57813784Y-103579687D01*
X58210689Y-103415689D01*
X58514622Y-103112286D01*
X58679313Y-102715668D01*
X58679687Y-102286216D01*
X58515689Y-101889311D01*
X58212286Y-101585378D01*
X58136600Y-101553950D01*
X58136600Y-100300000D01*
X58080530Y-100018115D01*
X57920855Y-99779145D01*
X57200855Y-99059145D01*
X56961885Y-98899470D01*
X56909248Y-98889000D01*
X60131764Y-98889000D01*
X62220432Y-100977668D01*
X62220313Y-101113784D01*
X62384311Y-101510689D01*
X62411000Y-101537425D01*
X62411000Y-109562137D01*
X62385378Y-109587714D01*
X62220687Y-109984332D01*
X62220313Y-110413784D01*
X62384311Y-110810689D01*
X62411000Y-110837425D01*
X62411000Y-113734030D01*
X62289311Y-113784311D01*
X61985378Y-114087714D01*
X61820687Y-114484332D01*
X61820313Y-114913784D01*
X61984311Y-115310689D01*
X62287714Y-115614622D01*
X62684332Y-115779313D01*
X63113784Y-115779687D01*
X63510689Y-115615689D01*
X63814622Y-115312286D01*
X63979313Y-114915668D01*
X63979368Y-114852666D01*
X64121329Y-114640206D01*
X64189000Y-114300000D01*
X64189000Y-111089000D01*
X67168259Y-111089000D01*
X69742633Y-111869113D01*
X69987714Y-112114622D01*
X70384332Y-112279313D01*
X70813784Y-112279687D01*
X71210689Y-112115689D01*
X71514622Y-111812286D01*
X71679313Y-111415668D01*
X71679687Y-110986216D01*
X71515689Y-110589311D01*
X71212286Y-110285378D01*
X70815668Y-110120687D01*
X70386216Y-110120313D01*
X70266166Y-110169917D01*
X69307816Y-109879508D01*
X69513784Y-109879687D01*
X69910689Y-109715689D01*
X70214622Y-109412286D01*
X70379313Y-109015668D01*
X70379517Y-108781614D01*
X76520541Y-102852351D01*
X76520313Y-103113784D01*
X76684311Y-103510689D01*
X76987714Y-103814622D01*
X77384332Y-103979313D01*
X77427334Y-103979350D01*
X85367685Y-111828433D01*
X85484311Y-112110689D01*
X85787714Y-112414622D01*
X86184332Y-112579313D01*
X86613784Y-112579687D01*
X87010689Y-112415689D01*
X87314622Y-112112286D01*
X87479313Y-111715668D01*
X87479687Y-111286216D01*
X87315689Y-110889311D01*
X87181106Y-110754493D01*
X87373674Y-110834454D01*
X88620854Y-110835543D01*
X89773515Y-110359273D01*
X90656174Y-109478153D01*
X91134454Y-108326326D01*
X91135543Y-107079146D01*
X90911367Y-106536600D01*
X100294890Y-106536600D01*
X101979145Y-108220855D01*
X102218115Y-108380530D01*
X102500000Y-108436600D01*
X103453601Y-108436600D01*
X103840727Y-109373515D01*
X104721847Y-110256174D01*
X105702557Y-110663400D01*
X103892857Y-110663400D01*
X102305767Y-109164482D01*
X102192793Y-109093577D01*
X102081885Y-109019470D01*
X102071394Y-109017383D01*
X102062334Y-109011697D01*
X101930814Y-108989420D01*
X101800000Y-108963400D01*
X99579359Y-108963400D01*
X99579687Y-108586216D01*
X99415689Y-108189311D01*
X99112286Y-107885378D01*
X98715668Y-107720687D01*
X98286216Y-107720313D01*
X97889311Y-107884311D01*
X97709909Y-108063400D01*
X93300000Y-108063400D01*
X93166582Y-108089938D01*
X93032655Y-108113628D01*
X93025934Y-108117915D01*
X93018115Y-108119470D01*
X92905007Y-108195046D01*
X92790342Y-108268184D01*
X88561783Y-112320553D01*
X88286216Y-112320313D01*
X87889311Y-112484311D01*
X87585378Y-112787714D01*
X87420687Y-113184332D01*
X87420313Y-113613784D01*
X87584311Y-114010689D01*
X87887714Y-114314622D01*
X87963400Y-114346050D01*
X87963400Y-115294890D01*
X87137758Y-116120532D01*
X86886216Y-116120313D01*
X86489311Y-116284311D01*
X86185378Y-116587714D01*
X86020687Y-116984332D01*
X86020313Y-117413784D01*
X86184311Y-117810689D01*
X86487714Y-118114622D01*
X86884332Y-118279313D01*
X87313784Y-118279687D01*
X87710689Y-118115689D01*
X88014622Y-117812286D01*
X88179313Y-117415668D01*
X88179534Y-117162176D01*
X88663400Y-116678310D01*
X88663400Y-120184808D01*
X87264046Y-121520555D01*
X86986216Y-121520313D01*
X86589311Y-121684311D01*
X86285378Y-121987714D01*
X86120687Y-122384332D01*
X86120313Y-122813784D01*
X86284311Y-123210689D01*
X86587714Y-123514622D01*
X86984332Y-123679313D01*
X87413784Y-123679687D01*
X87810689Y-123515689D01*
X88114622Y-123212286D01*
X88279313Y-122815668D01*
X88279511Y-122587867D01*
X89302560Y-121611321D01*
X89302560Y-124045000D01*
X89346838Y-124280317D01*
X89485910Y-124496441D01*
X89698110Y-124641431D01*
X89950000Y-124692440D01*
X127309185Y-124692440D01*
X128373674Y-125134454D01*
X129620854Y-125135543D01*
X130773515Y-124659273D01*
X131656174Y-123778153D01*
X132134454Y-122626326D01*
X132135543Y-121379146D01*
X131659273Y-120226485D01*
X130778153Y-119343826D01*
X129626326Y-118865546D01*
X128379146Y-118864457D01*
X128297440Y-118898217D01*
X128297440Y-115155000D01*
X128253162Y-114919683D01*
X128114090Y-114703559D01*
X127901890Y-114558569D01*
X127650000Y-114507560D01*
X90334150Y-114507560D01*
X93605110Y-111236600D01*
X101294890Y-111236600D01*
X102879145Y-112820855D01*
X103118115Y-112980530D01*
X103400000Y-113036600D01*
X121500000Y-113036600D01*
X121578901Y-113020906D01*
X121659329Y-113019162D01*
X121718491Y-112993140D01*
X121781885Y-112980530D01*
X121848777Y-112935834D01*
X121922412Y-112903446D01*
X123258139Y-111968437D01*
X123284332Y-111979313D01*
X123713784Y-111979687D01*
X124110689Y-111815689D01*
X124414622Y-111512286D01*
X124579313Y-111115668D01*
X124579687Y-110686216D01*
X124415689Y-110289311D01*
X124112286Y-109985378D01*
X123715668Y-109820687D01*
X123286216Y-109820313D01*
X122889311Y-109984311D01*
X122585378Y-110287714D01*
X122420687Y-110684332D01*
X122420624Y-110756429D01*
X121267808Y-111563400D01*
X111879359Y-111563400D01*
X111879687Y-111186216D01*
X111715689Y-110789311D01*
X111412286Y-110485378D01*
X111015668Y-110320687D01*
X110586216Y-110320313D01*
X110189311Y-110484311D01*
X110009909Y-110663400D01*
X107295453Y-110663400D01*
X108273515Y-110259273D01*
X109156174Y-109378153D01*
X109634454Y-108226326D01*
X109635543Y-106979146D01*
X109159273Y-105826485D01*
X108278153Y-104943826D01*
X107126326Y-104465546D01*
X105879146Y-104464457D01*
X104726485Y-104940727D01*
X103843826Y-105821847D01*
X103369812Y-106963400D01*
X102805110Y-106963400D01*
X101578310Y-105736600D01*
X103000000Y-105736600D01*
X103281885Y-105680530D01*
X103520855Y-105520855D01*
X104805110Y-104236600D01*
X109094890Y-104236600D01*
X113079145Y-108220855D01*
X113318115Y-108380530D01*
X113600000Y-108436600D01*
X114970963Y-108436600D01*
X115440727Y-109573515D01*
X116321847Y-110456174D01*
X117473674Y-110934454D01*
X118720854Y-110935543D01*
X119873515Y-110459273D01*
X120756174Y-109578153D01*
X120898298Y-109235880D01*
X126994525Y-109235880D01*
X127276221Y-109658564D01*
X128428692Y-110135294D01*
X129675872Y-110134705D01*
X130825379Y-109658564D01*
X131107075Y-109235880D01*
X129050800Y-107179605D01*
X126994525Y-109235880D01*
X120898298Y-109235880D01*
X121234454Y-108426326D01*
X121235543Y-107179146D01*
X120904472Y-106377892D01*
X125915506Y-106377892D01*
X125916095Y-107625072D01*
X126392236Y-108774579D01*
X126814920Y-109056275D01*
X128871195Y-107000000D01*
X129230405Y-107000000D01*
X131286680Y-109056275D01*
X131709364Y-108774579D01*
X132186094Y-107622108D01*
X132185505Y-106374928D01*
X131709364Y-105225421D01*
X131286680Y-104943725D01*
X129230405Y-107000000D01*
X128871195Y-107000000D01*
X126814920Y-104943725D01*
X126392236Y-105225421D01*
X125915506Y-106377892D01*
X120904472Y-106377892D01*
X120759273Y-106026485D01*
X119878153Y-105143826D01*
X118963719Y-104764120D01*
X126994525Y-104764120D01*
X129050800Y-106820395D01*
X131107075Y-104764120D01*
X130825379Y-104341436D01*
X129672908Y-103864706D01*
X128425728Y-103865295D01*
X127276221Y-104341436D01*
X126994525Y-104764120D01*
X118963719Y-104764120D01*
X118726326Y-104665546D01*
X117479146Y-104664457D01*
X116326485Y-105140727D01*
X115443826Y-106021847D01*
X115052859Y-106963400D01*
X113905110Y-106963400D01*
X110478310Y-103536600D01*
X114710002Y-103536600D01*
X114887714Y-103714622D01*
X115284332Y-103879313D01*
X115713784Y-103879687D01*
X116110689Y-103715689D01*
X116414622Y-103412286D01*
X116579313Y-103015668D01*
X116579687Y-102586216D01*
X116415689Y-102189311D01*
X116112286Y-101885378D01*
X115715668Y-101720687D01*
X115286216Y-101720313D01*
X114889311Y-101884311D01*
X114709909Y-102063400D01*
X92005110Y-102063400D01*
X89936600Y-99994890D01*
X89936600Y-99149225D01*
X90150000Y-99192440D01*
X127850000Y-99192440D01*
X128085317Y-99148162D01*
X128301441Y-99009090D01*
X128446431Y-98796890D01*
X128497440Y-98545000D01*
X128497440Y-95134651D01*
X129519254Y-95135543D01*
X130671915Y-94659273D01*
X131554574Y-93778153D01*
X132032854Y-92626326D01*
X132033943Y-91379146D01*
X131557673Y-90226485D01*
X130676553Y-89343826D01*
X129524726Y-88865546D01*
X128277546Y-88864457D01*
X127904500Y-89018597D01*
X127850000Y-89007560D01*
X90150000Y-89007560D01*
X89914683Y-89051838D01*
X89698559Y-89190910D01*
X89553569Y-89403110D01*
X89502560Y-89655000D01*
X89502560Y-92306170D01*
X89479598Y-92288948D01*
X89479687Y-92186216D01*
X89315689Y-91789311D01*
X89012286Y-91485378D01*
X88615668Y-91320687D01*
X88186216Y-91320313D01*
X87789311Y-91484311D01*
X87485378Y-91787714D01*
X87320687Y-92184332D01*
X87320313Y-92613784D01*
X87484311Y-93010689D01*
X87787714Y-93314622D01*
X88184332Y-93479313D01*
X88463400Y-93479556D01*
X88463400Y-94940507D01*
X88415668Y-94920687D01*
X87986216Y-94920313D01*
X87589311Y-95084311D01*
X87285378Y-95387714D01*
X87120687Y-95784332D01*
X87120313Y-96213784D01*
X87284311Y-96610689D01*
X87463400Y-96790091D01*
X87463400Y-100021690D01*
X86920855Y-99479145D01*
X86916699Y-99476368D01*
X86913865Y-99472247D01*
X86797346Y-99396619D01*
X86681885Y-99319470D01*
X86676982Y-99318495D01*
X86672787Y-99315772D01*
X86536186Y-99290489D01*
X86400000Y-99263400D01*
X86395097Y-99264375D01*
X86390180Y-99263465D01*
X79679556Y-99352940D01*
X79634203Y-99307507D01*
X80305110Y-98636600D01*
X82410002Y-98636600D01*
X82587714Y-98814622D01*
X82984332Y-98979313D01*
X83413784Y-98979687D01*
X83810689Y-98815689D01*
X84114622Y-98512286D01*
X84279313Y-98115668D01*
X84279687Y-97686216D01*
X84115689Y-97289311D01*
X83812286Y-96985378D01*
X83415668Y-96820687D01*
X82986216Y-96820313D01*
X82589311Y-96984311D01*
X82409909Y-97163400D01*
X80878310Y-97163400D01*
X81520855Y-96520855D01*
X81680530Y-96281885D01*
X81736600Y-96000000D01*
X81736600Y-95089998D01*
X81914622Y-94912286D01*
X82079313Y-94515668D01*
X82079687Y-94086216D01*
X81915689Y-93689311D01*
X81612286Y-93385378D01*
X81215668Y-93220687D01*
X80786216Y-93220313D01*
X80389311Y-93384311D01*
X80085378Y-93687714D01*
X79920687Y-94084332D01*
X79920313Y-94513784D01*
X80084311Y-94910689D01*
X80263400Y-95090091D01*
X80263400Y-95694890D01*
X78006384Y-97951906D01*
X78016709Y-97900000D01*
X78036601Y-97800000D01*
X78036600Y-97799995D01*
X78036600Y-94089998D01*
X78214622Y-93912286D01*
X78379313Y-93515668D01*
X78379687Y-93086216D01*
X78215689Y-92689311D01*
X77912286Y-92385378D01*
X77515668Y-92220687D01*
X77086216Y-92220313D01*
X76689311Y-92384311D01*
X76385378Y-92687714D01*
X76220687Y-93084332D01*
X76220313Y-93513784D01*
X76384311Y-93910689D01*
X76563400Y-94090091D01*
X76563400Y-97494890D01*
X66237758Y-107820532D01*
X65986216Y-107820313D01*
X65589311Y-107984311D01*
X65285378Y-108287714D01*
X65120687Y-108684332D01*
X65120313Y-109113784D01*
X65201801Y-109311000D01*
X64189000Y-109311000D01*
X64189000Y-101537863D01*
X64214622Y-101512286D01*
X64379313Y-101115668D01*
X64379346Y-101077890D01*
X65068236Y-100389000D01*
X67962485Y-100389000D01*
X68187714Y-100614622D01*
X68584332Y-100779313D01*
X69013784Y-100779687D01*
X69410689Y-100615689D01*
X69714622Y-100312286D01*
X69879313Y-99915668D01*
X69879687Y-99486216D01*
X69715689Y-99089311D01*
X69412286Y-98785378D01*
X69015668Y-98620687D01*
X68647086Y-98620366D01*
X68600000Y-98611000D01*
X65379317Y-98611000D01*
X65379687Y-98186216D01*
X65215689Y-97789311D01*
X64912286Y-97485378D01*
X64515668Y-97320687D01*
X64262176Y-97320466D01*
X63284108Y-96342398D01*
X63464376Y-96162444D01*
X63484311Y-96210689D01*
X63787714Y-96514622D01*
X64184332Y-96679313D01*
X64613784Y-96679687D01*
X65010689Y-96515689D01*
X65314622Y-96212286D01*
X65479313Y-95815668D01*
X65479687Y-95386216D01*
X65315689Y-94989311D01*
X65012286Y-94685378D01*
X64615668Y-94520687D01*
X64367617Y-94520471D01*
X55554405Y-85620854D01*
X69864457Y-85620854D01*
X70340727Y-86773515D01*
X71221847Y-87656174D01*
X72373674Y-88134454D01*
X73620854Y-88135543D01*
X74773515Y-87659273D01*
X75656174Y-86778153D01*
X76134454Y-85626326D01*
X76134546Y-85520854D01*
X92764457Y-85520854D01*
X93240727Y-86673515D01*
X94121847Y-87556174D01*
X95273674Y-88034454D01*
X96520854Y-88035543D01*
X97673515Y-87559273D01*
X98556174Y-86678153D01*
X98953678Y-85720854D01*
X114964457Y-85720854D01*
X115440727Y-86873515D01*
X116321847Y-87756174D01*
X117473674Y-88234454D01*
X118720854Y-88235543D01*
X119873515Y-87759273D01*
X120756174Y-86878153D01*
X121234454Y-85726326D01*
X121235543Y-84479146D01*
X120759273Y-83326485D01*
X119878153Y-82443826D01*
X118726326Y-81965546D01*
X117479146Y-81964457D01*
X116326485Y-82440727D01*
X115443826Y-83321847D01*
X114965546Y-84473674D01*
X114964457Y-85720854D01*
X98953678Y-85720854D01*
X99034454Y-85526326D01*
X99035543Y-84279146D01*
X98559273Y-83126485D01*
X97678153Y-82243826D01*
X96526326Y-81765546D01*
X95279146Y-81764457D01*
X94126485Y-82240727D01*
X93243826Y-83121847D01*
X92765546Y-84273674D01*
X92764457Y-85520854D01*
X76134546Y-85520854D01*
X76135543Y-84379146D01*
X75659273Y-83226485D01*
X74778153Y-82343826D01*
X73626326Y-81865546D01*
X72379146Y-81864457D01*
X71226485Y-82340727D01*
X70343826Y-83221847D01*
X69865546Y-84373674D01*
X69864457Y-85620854D01*
X55554405Y-85620854D01*
X54936600Y-84996993D01*
X54936600Y-67100000D01*
X54880530Y-66818115D01*
X54720855Y-66579145D01*
X52836600Y-64694890D01*
X52836600Y-62789998D01*
X53014622Y-62612286D01*
X53179313Y-62215668D01*
X53179687Y-61786216D01*
X53015689Y-61389311D01*
X52712286Y-61085378D01*
X52315668Y-60920687D01*
X51886216Y-60920313D01*
X51489311Y-61084311D01*
X51185378Y-61387714D01*
X51020687Y-61784332D01*
X51020313Y-62213784D01*
X51184311Y-62610689D01*
X51363400Y-62790091D01*
X51363400Y-65000000D01*
X51419470Y-65281885D01*
X51579145Y-65520855D01*
X53463400Y-67405110D01*
X53463400Y-72721690D01*
X53036600Y-72294890D01*
X53036600Y-69589998D01*
X53214622Y-69412286D01*
X53379313Y-69015668D01*
X53379687Y-68586216D01*
X53215689Y-68189311D01*
X52912286Y-67885378D01*
X52515668Y-67720687D01*
X52086216Y-67720313D01*
X51689311Y-67884311D01*
X51385378Y-68187714D01*
X51220687Y-68584332D01*
X51220313Y-69013784D01*
X51384311Y-69410689D01*
X51563400Y-69590091D01*
X51563400Y-72600000D01*
X51619470Y-72881885D01*
X51779145Y-73120855D01*
X52263400Y-73605110D01*
X52263400Y-74020641D01*
X51886216Y-74020313D01*
X51489311Y-74184311D01*
X51185378Y-74487714D01*
X51020687Y-74884332D01*
X51020313Y-75313784D01*
X51184311Y-75710689D01*
X51363400Y-75890091D01*
X51363400Y-86200000D01*
X51419470Y-86481885D01*
X51579145Y-86720855D01*
X63220532Y-98362242D01*
X63220313Y-98613784D01*
X63384311Y-99010689D01*
X63657954Y-99284810D01*
X63350000Y-99592764D01*
X61128618Y-97371382D01*
X60840206Y-97178671D01*
X60500000Y-97111000D01*
X54168236Y-97111000D01*
X50928618Y-93871382D01*
X50640206Y-93678671D01*
X50300000Y-93611000D01*
X48630693Y-93611000D01*
X48603162Y-93464683D01*
X48470000Y-93257743D01*
X48470000Y-92500005D01*
X48470001Y-92500000D01*
X48373327Y-92013992D01*
X48098026Y-91601974D01*
X39470000Y-82973948D01*
X39470000Y-79801942D01*
X39583354Y-80371810D01*
X39941246Y-80907433D01*
X40476869Y-81265325D01*
X41108679Y-81391000D01*
X41691321Y-81391000D01*
X42323131Y-81265325D01*
X42858754Y-80907433D01*
X43216646Y-80371810D01*
X43342321Y-79740000D01*
X43216646Y-79108190D01*
X42858754Y-78572567D01*
X42705252Y-78470000D01*
X42858754Y-78367433D01*
X43216646Y-77831810D01*
X43342321Y-77200000D01*
X43216646Y-76568190D01*
X42858754Y-76032567D01*
X42684219Y-75915946D01*
X42911236Y-75737630D01*
X43227926Y-75174477D01*
X43259975Y-75042944D01*
X43140836Y-74787000D01*
X41527000Y-74787000D01*
X41527000Y-74807000D01*
X41273000Y-74807000D01*
X41273000Y-74787000D01*
X39659164Y-74787000D01*
X39540025Y-75042944D01*
X39572074Y-75174477D01*
X39888764Y-75737630D01*
X40115781Y-75915946D01*
X40094748Y-75930000D01*
X39100000Y-75930000D01*
X38613992Y-76026673D01*
X38201974Y-76301974D01*
X38201972Y-76301977D01*
X37301974Y-77201974D01*
X37026673Y-77613992D01*
X36929999Y-78100000D01*
X35825500Y-78100000D01*
X35825500Y-74277056D01*
X39540025Y-74277056D01*
X39659164Y-74533000D01*
X41273000Y-74533000D01*
X41273000Y-73009000D01*
X41527000Y-73009000D01*
X41527000Y-74533000D01*
X43140836Y-74533000D01*
X43259975Y-74277056D01*
X43227926Y-74145523D01*
X42911236Y-73582370D01*
X42403143Y-73183276D01*
X41781000Y-73009000D01*
X41527000Y-73009000D01*
X41273000Y-73009000D01*
X41019000Y-73009000D01*
X40396857Y-73183276D01*
X39888764Y-73582370D01*
X39572074Y-74145523D01*
X39540025Y-74277056D01*
X35825500Y-74277056D01*
X35825500Y-66840000D01*
X36957679Y-66840000D01*
X37083354Y-67471810D01*
X37441246Y-68007433D01*
X37976869Y-68365325D01*
X38608679Y-68491000D01*
X39191321Y-68491000D01*
X39823131Y-68365325D01*
X40358754Y-68007433D01*
X40716646Y-67471810D01*
X40842321Y-66840000D01*
X40716646Y-66208190D01*
X40358754Y-65672567D01*
X40184219Y-65555946D01*
X40411236Y-65377630D01*
X40727926Y-64814477D01*
X40759975Y-64682944D01*
X40640836Y-64427000D01*
X39027000Y-64427000D01*
X39027000Y-64447000D01*
X38773000Y-64447000D01*
X38773000Y-64427000D01*
X37159164Y-64427000D01*
X37040025Y-64682944D01*
X37072074Y-64814477D01*
X37388764Y-65377630D01*
X37615781Y-65555946D01*
X37441246Y-65672567D01*
X37083354Y-66208190D01*
X36957679Y-66840000D01*
X35825500Y-66840000D01*
X35825500Y-61760000D01*
X36957679Y-61760000D01*
X37083354Y-62391810D01*
X37441246Y-62927433D01*
X37615781Y-63044054D01*
X37388764Y-63222370D01*
X37072074Y-63785523D01*
X37040025Y-63917056D01*
X37159164Y-64173000D01*
X38773000Y-64173000D01*
X38773000Y-64153000D01*
X39027000Y-64153000D01*
X39027000Y-64173000D01*
X40640836Y-64173000D01*
X40759975Y-63917056D01*
X40727926Y-63785523D01*
X40411236Y-63222370D01*
X40184219Y-63044054D01*
X40358754Y-62927433D01*
X40716646Y-62391810D01*
X40842321Y-61760000D01*
X40716646Y-61128190D01*
X40358754Y-60592567D01*
X39823131Y-60234675D01*
X39191321Y-60109000D01*
X38608679Y-60109000D01*
X37976869Y-60234675D01*
X37441246Y-60592567D01*
X37083354Y-61128190D01*
X36957679Y-61760000D01*
X35825500Y-61760000D01*
X35825500Y-57713784D01*
X55220313Y-57713784D01*
X55384311Y-58110689D01*
X55687714Y-58414622D01*
X56084332Y-58579313D01*
X56513784Y-58579687D01*
X56763400Y-58476548D01*
X56763400Y-64520380D01*
X56686216Y-64520313D01*
X56289311Y-64684311D01*
X55985378Y-64987714D01*
X55820687Y-65384332D01*
X55820313Y-65813784D01*
X55984311Y-66210689D01*
X56287714Y-66514622D01*
X56684332Y-66679313D01*
X57113784Y-66679687D01*
X57510689Y-66515689D01*
X57763400Y-66263419D01*
X57763400Y-71020380D01*
X57686216Y-71020313D01*
X57289311Y-71184311D01*
X56985378Y-71487714D01*
X56820687Y-71884332D01*
X56820313Y-72313784D01*
X56984311Y-72710689D01*
X57287714Y-73014622D01*
X57684332Y-73179313D01*
X58113784Y-73179687D01*
X58510689Y-73015689D01*
X58814622Y-72712286D01*
X58979313Y-72315668D01*
X58979534Y-72062176D01*
X59020855Y-72020855D01*
X59180530Y-71781885D01*
X59236600Y-71500000D01*
X59236600Y-71021509D01*
X59340727Y-71273515D01*
X59352560Y-71285369D01*
X59352560Y-77500000D01*
X59396838Y-77735317D01*
X59535910Y-77951441D01*
X59748110Y-78096431D01*
X60000000Y-78147440D01*
X62002560Y-78147440D01*
X62002560Y-79745000D01*
X62046838Y-79980317D01*
X62185910Y-80196441D01*
X62398110Y-80341431D01*
X62650000Y-80392440D01*
X75350000Y-80392440D01*
X75585317Y-80348162D01*
X75801441Y-80209090D01*
X75946431Y-79996890D01*
X75997440Y-79745000D01*
X75997440Y-78147440D01*
X78000000Y-78147440D01*
X78235317Y-78103162D01*
X78451441Y-77964090D01*
X78596431Y-77751890D01*
X78647440Y-77500000D01*
X78647440Y-59500000D01*
X82352560Y-59500000D01*
X82352560Y-77500000D01*
X82396838Y-77735317D01*
X82535910Y-77951441D01*
X82748110Y-78096431D01*
X83000000Y-78147440D01*
X85002560Y-78147440D01*
X85002560Y-79745000D01*
X85046838Y-79980317D01*
X85185910Y-80196441D01*
X85398110Y-80341431D01*
X85650000Y-80392440D01*
X98350000Y-80392440D01*
X98585317Y-80348162D01*
X98801441Y-80209090D01*
X98946431Y-79996890D01*
X98997440Y-79745000D01*
X98997440Y-78147440D01*
X101000000Y-78147440D01*
X101235317Y-78103162D01*
X101451441Y-77964090D01*
X101596431Y-77751890D01*
X101647440Y-77500000D01*
X101647440Y-59500000D01*
X105352560Y-59500000D01*
X105352560Y-77500000D01*
X105396838Y-77735317D01*
X105535910Y-77951441D01*
X105748110Y-78096431D01*
X106000000Y-78147440D01*
X108002560Y-78147440D01*
X108002560Y-79745000D01*
X108046838Y-79980317D01*
X108185910Y-80196441D01*
X108398110Y-80341431D01*
X108650000Y-80392440D01*
X121350000Y-80392440D01*
X121585317Y-80348162D01*
X121801441Y-80209090D01*
X121946431Y-79996890D01*
X121997440Y-79745000D01*
X121997440Y-79235880D01*
X126689725Y-79235880D01*
X126971421Y-79658564D01*
X128123892Y-80135294D01*
X129371072Y-80134705D01*
X130520579Y-79658564D01*
X130802275Y-79235880D01*
X128746000Y-77179605D01*
X126689725Y-79235880D01*
X121997440Y-79235880D01*
X121997440Y-78147440D01*
X124000000Y-78147440D01*
X124235317Y-78103162D01*
X124451441Y-77964090D01*
X124596431Y-77751890D01*
X124647440Y-77500000D01*
X124647440Y-76377892D01*
X125610706Y-76377892D01*
X125611295Y-77625072D01*
X126087436Y-78774579D01*
X126510120Y-79056275D01*
X128566395Y-77000000D01*
X128925605Y-77000000D01*
X130981880Y-79056275D01*
X131404564Y-78774579D01*
X131881294Y-77622108D01*
X131880705Y-76374928D01*
X131404564Y-75225421D01*
X130981880Y-74943725D01*
X128925605Y-77000000D01*
X128566395Y-77000000D01*
X126510120Y-74943725D01*
X126087436Y-75225421D01*
X125610706Y-76377892D01*
X124647440Y-76377892D01*
X124647440Y-74764120D01*
X126689725Y-74764120D01*
X128746000Y-76820395D01*
X130802275Y-74764120D01*
X130520579Y-74341436D01*
X129368108Y-73864706D01*
X128120928Y-73865295D01*
X126971421Y-74341436D01*
X126689725Y-74764120D01*
X124647440Y-74764120D01*
X124647440Y-71286872D01*
X124656174Y-71278153D01*
X125134454Y-70126326D01*
X125135543Y-68879146D01*
X124659273Y-67726485D01*
X124647440Y-67714631D01*
X124647440Y-62620854D01*
X125864457Y-62620854D01*
X126340727Y-63773515D01*
X127221847Y-64656174D01*
X128373674Y-65134454D01*
X129620854Y-65135543D01*
X130773515Y-64659273D01*
X131656174Y-63778153D01*
X132134454Y-62626326D01*
X132135543Y-61379146D01*
X131659273Y-60226485D01*
X130778153Y-59343826D01*
X129626326Y-58865546D01*
X128379146Y-58864457D01*
X128034994Y-59006658D01*
X128035179Y-58795029D01*
X127877942Y-58414485D01*
X127587046Y-58123081D01*
X127206777Y-57965180D01*
X126795029Y-57964821D01*
X126414485Y-58122058D01*
X126123081Y-58412954D01*
X125965180Y-58793223D01*
X125964821Y-59204971D01*
X126122058Y-59585515D01*
X126412954Y-59876919D01*
X126608159Y-59957975D01*
X126343826Y-60221847D01*
X125865546Y-61373674D01*
X125864457Y-62620854D01*
X124647440Y-62620854D01*
X124647440Y-59500000D01*
X124603162Y-59264683D01*
X124464090Y-59048559D01*
X124251890Y-58903569D01*
X124000000Y-58852560D01*
X106000000Y-58852560D01*
X105764683Y-58896838D01*
X105548559Y-59035910D01*
X105403569Y-59248110D01*
X105352560Y-59500000D01*
X101647440Y-59500000D01*
X101603162Y-59264683D01*
X101464090Y-59048559D01*
X101251890Y-58903569D01*
X101000000Y-58852560D01*
X83000000Y-58852560D01*
X82764683Y-58896838D01*
X82548559Y-59035910D01*
X82403569Y-59248110D01*
X82352560Y-59500000D01*
X78647440Y-59500000D01*
X78603162Y-59264683D01*
X78464090Y-59048559D01*
X78251890Y-58903569D01*
X78000000Y-58852560D01*
X60000000Y-58852560D01*
X59764683Y-58896838D01*
X59548559Y-59035910D01*
X59403569Y-59248110D01*
X59352560Y-59500000D01*
X59352560Y-67713128D01*
X59343826Y-67721847D01*
X59236600Y-67980076D01*
X59236600Y-59205110D01*
X60105110Y-58336600D01*
X114410002Y-58336600D01*
X114587714Y-58514622D01*
X114984332Y-58679313D01*
X115413784Y-58679687D01*
X115810689Y-58515689D01*
X116114622Y-58212286D01*
X116279313Y-57815668D01*
X116279687Y-57386216D01*
X116115689Y-56989311D01*
X115812286Y-56685378D01*
X115415668Y-56520687D01*
X114986216Y-56520313D01*
X114589311Y-56684311D01*
X114409909Y-56863400D01*
X93659493Y-56863400D01*
X93679313Y-56815668D01*
X93679687Y-56386216D01*
X93515689Y-55989311D01*
X93212286Y-55685378D01*
X92815668Y-55520687D01*
X92386216Y-55520313D01*
X91989311Y-55684311D01*
X91709734Y-55963400D01*
X70776445Y-55963400D01*
X70879313Y-55715668D01*
X70879542Y-55452521D01*
X126714604Y-55452521D01*
X127061742Y-56292658D01*
X127703961Y-56935999D01*
X128543491Y-57284603D01*
X129452521Y-57285396D01*
X130292658Y-56938258D01*
X130935999Y-56296039D01*
X131284603Y-55456509D01*
X131285396Y-54547479D01*
X130938258Y-53707342D01*
X130296039Y-53064001D01*
X129456509Y-52715397D01*
X128547479Y-52714604D01*
X127707342Y-53061742D01*
X127064001Y-53703961D01*
X126715397Y-54543491D01*
X126714604Y-55452521D01*
X70879542Y-55452521D01*
X70879687Y-55286216D01*
X70715689Y-54889311D01*
X70412286Y-54585378D01*
X70015668Y-54420687D01*
X69586216Y-54420313D01*
X69189311Y-54584311D01*
X69009909Y-54763400D01*
X58300000Y-54763400D01*
X58018115Y-54819470D01*
X57779145Y-54979145D01*
X56337758Y-56420532D01*
X56086216Y-56420313D01*
X55689311Y-56584311D01*
X55385378Y-56887714D01*
X55220687Y-57284332D01*
X55220313Y-57713784D01*
X35825500Y-57713784D01*
X35825500Y-55452521D01*
X37714604Y-55452521D01*
X38061742Y-56292658D01*
X38703961Y-56935999D01*
X39543491Y-57284603D01*
X40452521Y-57285396D01*
X41292658Y-56938258D01*
X41935999Y-56296039D01*
X42284603Y-55456509D01*
X42285396Y-54547479D01*
X41938258Y-53707342D01*
X41935892Y-53704971D01*
X67964821Y-53704971D01*
X68122058Y-54085515D01*
X68412954Y-54376919D01*
X68793223Y-54534820D01*
X69204971Y-54535179D01*
X69585515Y-54377942D01*
X69876919Y-54087046D01*
X70034820Y-53706777D01*
X70034821Y-53704971D01*
X87964821Y-53704971D01*
X88122058Y-54085515D01*
X88412954Y-54376919D01*
X88793223Y-54534820D01*
X89204971Y-54535179D01*
X89585515Y-54377942D01*
X89876919Y-54087046D01*
X90000108Y-53790373D01*
X90122058Y-54085515D01*
X90412954Y-54376919D01*
X90793223Y-54534820D01*
X91204971Y-54535179D01*
X91585515Y-54377942D01*
X91876919Y-54087046D01*
X92034820Y-53706777D01*
X92034821Y-53704971D01*
X110964821Y-53704971D01*
X111122058Y-54085515D01*
X111412954Y-54376919D01*
X111793223Y-54534820D01*
X112204971Y-54535179D01*
X112585515Y-54377942D01*
X112876919Y-54087046D01*
X113000108Y-53790373D01*
X113122058Y-54085515D01*
X113412954Y-54376919D01*
X113793223Y-54534820D01*
X114204971Y-54535179D01*
X114585515Y-54377942D01*
X114876919Y-54087046D01*
X115034820Y-53706777D01*
X115034821Y-53704971D01*
X118964821Y-53704971D01*
X119122058Y-54085515D01*
X119412954Y-54376919D01*
X119793223Y-54534820D01*
X120204971Y-54535179D01*
X120585515Y-54377942D01*
X120876919Y-54087046D01*
X121000108Y-53790373D01*
X121122058Y-54085515D01*
X121412954Y-54376919D01*
X121793223Y-54534820D01*
X122204971Y-54535179D01*
X122585515Y-54377942D01*
X122876919Y-54087046D01*
X123034820Y-53706777D01*
X123035179Y-53295029D01*
X122877942Y-52914485D01*
X122587046Y-52623081D01*
X122206777Y-52465180D01*
X121795029Y-52464821D01*
X121414485Y-52622058D01*
X121123081Y-52912954D01*
X120999892Y-53209627D01*
X120877942Y-52914485D01*
X120587046Y-52623081D01*
X120206777Y-52465180D01*
X119795029Y-52464821D01*
X119414485Y-52622058D01*
X119123081Y-52912954D01*
X118965180Y-53293223D01*
X118964821Y-53704971D01*
X115034821Y-53704971D01*
X115035179Y-53295029D01*
X114877942Y-52914485D01*
X114587046Y-52623081D01*
X114206777Y-52465180D01*
X113795029Y-52464821D01*
X113414485Y-52622058D01*
X113123081Y-52912954D01*
X112999892Y-53209627D01*
X112877942Y-52914485D01*
X112587046Y-52623081D01*
X112206777Y-52465180D01*
X111795029Y-52464821D01*
X111414485Y-52622058D01*
X111123081Y-52912954D01*
X110965180Y-53293223D01*
X110964821Y-53704971D01*
X92034821Y-53704971D01*
X92035179Y-53295029D01*
X91877942Y-52914485D01*
X91587046Y-52623081D01*
X91206777Y-52465180D01*
X90795029Y-52464821D01*
X90414485Y-52622058D01*
X90123081Y-52912954D01*
X89999892Y-53209627D01*
X89877942Y-52914485D01*
X89587046Y-52623081D01*
X89206777Y-52465180D01*
X88795029Y-52464821D01*
X88414485Y-52622058D01*
X88123081Y-52912954D01*
X87965180Y-53293223D01*
X87964821Y-53704971D01*
X70034821Y-53704971D01*
X70035179Y-53295029D01*
X69877942Y-52914485D01*
X69587046Y-52623081D01*
X69206777Y-52465180D01*
X68795029Y-52464821D01*
X68414485Y-52622058D01*
X68123081Y-52912954D01*
X67965180Y-53293223D01*
X67964821Y-53704971D01*
X41935892Y-53704971D01*
X41296039Y-53064001D01*
X40456509Y-52715397D01*
X39547479Y-52714604D01*
X38707342Y-53061742D01*
X38064001Y-53703961D01*
X37715397Y-54543491D01*
X37714604Y-55452521D01*
X35825500Y-55452521D01*
X35825500Y-50825500D01*
X134174500Y-50825500D01*
X134174500Y-149174500D01*
G36*
X82020687Y-100884332D02*
X82020313Y-101313784D01*
X82184311Y-101710689D01*
X82487714Y-102014622D01*
X82884332Y-102179313D01*
X83313784Y-102179687D01*
X83710689Y-102015689D01*
X83890091Y-101836600D01*
X85494890Y-101836600D01*
X88223484Y-104565194D01*
X87379146Y-104564457D01*
X86226485Y-105040727D01*
X85343826Y-105921847D01*
X84865546Y-107073674D01*
X84864457Y-108320854D01*
X85220733Y-109183107D01*
X78679660Y-102717219D01*
X78679687Y-102686216D01*
X78515689Y-102289311D01*
X78212286Y-101985378D01*
X77815668Y-101820687D01*
X77589254Y-101820490D01*
X78382946Y-101054166D01*
X78684332Y-101179313D01*
X79113784Y-101179687D01*
X79510689Y-101015689D01*
X79700720Y-100825990D01*
X82057964Y-100794560D01*
X82020687Y-100884332D01*
X82020687Y-100884332D01*
G37*
X82020687Y-100884332D02*
X82020313Y-101313784D01*
X82184311Y-101710689D01*
X82487714Y-102014622D01*
X82884332Y-102179313D01*
X83313784Y-102179687D01*
X83710689Y-102015689D01*
X83890091Y-101836600D01*
X85494890Y-101836600D01*
X88223484Y-104565194D01*
X87379146Y-104564457D01*
X86226485Y-105040727D01*
X85343826Y-105921847D01*
X84865546Y-107073674D01*
X84864457Y-108320854D01*
X85220733Y-109183107D01*
X78679660Y-102717219D01*
X78679687Y-102686216D01*
X78515689Y-102289311D01*
X78212286Y-101985378D01*
X77815668Y-101820687D01*
X77589254Y-101820490D01*
X78382946Y-101054166D01*
X78684332Y-101179313D01*
X79113784Y-101179687D01*
X79510689Y-101015689D01*
X79700720Y-100825990D01*
X82057964Y-100794560D01*
X82020687Y-100884332D01*
G36*
X53171382Y-98628618D02*
X53459794Y-98821329D01*
X53570753Y-98843400D01*
X48419302Y-98843400D01*
X48214698Y-98537189D01*
X47874686Y-98310000D01*
X48214698Y-98082811D01*
X48525767Y-97617264D01*
X48635000Y-97068113D01*
X48635000Y-97011887D01*
X48525767Y-96462736D01*
X48214698Y-95997189D01*
X48109428Y-95926850D01*
X48235317Y-95903162D01*
X48451441Y-95764090D01*
X48596431Y-95551890D01*
X48629417Y-95389000D01*
X49931764Y-95389000D01*
X53171382Y-98628618D01*
X53171382Y-98628618D01*
G37*
X53171382Y-98628618D02*
X53459794Y-98821329D01*
X53570753Y-98843400D01*
X48419302Y-98843400D01*
X48214698Y-98537189D01*
X47874686Y-98310000D01*
X48214698Y-98082811D01*
X48525767Y-97617264D01*
X48635000Y-97068113D01*
X48635000Y-97011887D01*
X48525767Y-96462736D01*
X48214698Y-95997189D01*
X48109428Y-95926850D01*
X48235317Y-95903162D01*
X48451441Y-95764090D01*
X48596431Y-95551890D01*
X48629417Y-95389000D01*
X49931764Y-95389000D01*
X53171382Y-98628618D01*
M02*
