M48
;DRILL file {KiCad 4.0.7-e2-6376~58~ubuntu14.04.1} date Sun Jan 28 19:01:41 2018
;FORMAT={-:-/ absolute / metric / decimal}
FMAT,2
METRIC,TZ
T1C0.500
T2C0.635
T3C0.800
T4C0.813
T5C0.910
T6C1.000
T7C1.143
T8C2.000
T9C3.000
%
G90
G05
M71
T1
X63.Y-62.
X69.Y-53.5
X74.Y-75.5
X75.Y-62.
X86.Y-62.
X89.Y-53.5
X91.Y-53.5
X91.3Y-119.4
X97.Y-75.5
X98.Y-62.
X101.5Y-94.3
X103.8Y-119.4
X109.Y-62.
X112.Y-53.5
X114.Y-53.5
X114.Y-94.3
X116.3Y-119.4
X120.Y-53.5
X120.Y-75.5
X121.Y-62.
X122.Y-53.5
X126.5Y-94.3
X127.Y-59.
T2
X43.2Y-114.8
X50.3Y-98.4
X52.1Y-62.
X52.1Y-73.5
X52.1Y-75.1
X52.3Y-68.8
X54.1Y-60.5
X55.Y-66.1
X55.1Y-72.8
X56.3Y-57.5
X56.9Y-65.6
X57.6Y-102.5
X57.9Y-72.1
X59.1Y-117.5
X59.5Y-116.
X62.6Y-95.5
X62.9Y-114.7
X63.3Y-100.9
X63.3Y-110.2
X64.3Y-98.4
X64.4Y-95.6
X64.7Y-107.7
X64.9Y-105.8
X65.3Y-84.
X66.2Y-108.9
X68.Y-109.
X68.8Y-99.7
X69.3Y-108.8
X69.5Y-87.1
X69.8Y-55.5
X70.6Y-111.2
X77.3Y-93.3
X77.6Y-102.9
X77.8Y-81.3
X78.9Y-100.1
X81.Y-94.3
X82.1Y-89.6
X83.1Y-101.1
X83.1Y-110.3
X83.1Y-117.1
X83.1Y-122.5
X83.2Y-97.9
X83.3Y-105.
X83.7Y-113.7
X86.4Y-103.7
X86.4Y-111.5
X87.1Y-117.2
X87.2Y-122.6
X88.1Y-84.6
X88.2Y-96.
X88.4Y-92.4
X88.5Y-113.4
X90.4Y-110.2
X92.6Y-56.6
X92.6Y-87.1
X98.5Y-108.8
X100.9Y-107.5
X101.2Y-80.5
X102.5Y-103.9
X106.6Y-88.2
X110.5Y-108.7
X110.8Y-111.4
X114.Y-87.4
X115.2Y-57.6
X115.5Y-102.8
X123.5Y-110.9
T3
X47.2Y-94.5
X47.2Y-97.04
X47.2Y-99.58
X47.2Y-102.12
X47.2Y-104.66
X47.2Y-107.2
X47.2Y-109.74
X47.2Y-112.28
X47.2Y-114.82
T4
X39.5Y-88.63
X39.5Y-91.17
T5
X37.46Y-95.76
X37.46Y-98.3
X37.46Y-100.84
X37.46Y-103.38
X37.46Y-105.92
X37.46Y-108.46
X37.46Y-111.
X40.Y-95.76
X40.Y-98.3
X40.Y-100.84
X40.Y-103.38
X40.Y-105.92
X40.Y-108.46
X40.Y-111.
T6
X39.Y-123.73
X39.Y-126.27
T7
X38.9Y-61.76
X38.9Y-64.3
X38.9Y-66.84
X41.4Y-74.66
X41.4Y-77.2
X41.4Y-79.74
T8
X47.Y-144.
X62.Y-69.5
X62.Y-140.5
X62.Y-144.
X73.Y-85.
X77.Y-144.051
X88.Y-107.7
X92.Y-69.5
X92.Y-140.5
X92.Y-143.898
X95.9Y-84.9
X106.5Y-107.6
X107.Y-143.746
X118.1Y-85.1
X118.1Y-107.8
X122.Y-69.5
X122.Y-140.5
X122.Y-144.
X128.746Y-77.
X128.898Y-92.
X129.Y-62.
X129.Y-122.
X129.Y-137.
X129.051Y-107.
T9
X40.Y-55.
X40.Y-144.
X129.Y-55.
X129.Y-144.
T0
M30
