G04 #@! TF.FileFunction,Soldermask,Bot*
%FSLAX46Y46*%
G04 Gerber Fmt 4.6, Leading zero omitted, Abs format (unit mm)*
G04 Created by KiCad (PCBNEW 4.0.7-e2-6376~58~ubuntu14.04.1) date Sun Jan 28 19:01:43 2018*
%MOMM*%
%LPD*%
G01*
G04 APERTURE LIST*
%ADD10C,0.150000*%
%ADD11R,2.028000X2.028000*%
%ADD12C,2.028000*%
%ADD13O,3.522980X2.014220*%
%ADD14R,1.905000X1.905000*%
%ADD15C,1.905000*%
%ADD16R,2.108000X2.108000*%
%ADD17O,2.108000X2.108000*%
%ADD18O,3.048000X2.540000*%
%ADD19C,5.508000*%
%ADD20C,1.308000*%
%ADD21C,1.508000*%
G04 APERTURE END LIST*
D10*
D11*
X40000000Y-111000000D03*
D12*
X37460000Y-111000000D03*
X40000000Y-108460000D03*
X37460000Y-108460000D03*
X40000000Y-105920000D03*
X37460000Y-105920000D03*
X40000000Y-103380000D03*
X37460000Y-103380000D03*
X40000000Y-100840000D03*
X37460000Y-100840000D03*
X40000000Y-98300000D03*
X37460000Y-98300000D03*
X40000000Y-95760000D03*
X37460000Y-95760000D03*
D13*
X39000000Y-123730000D03*
X39000000Y-126270000D03*
D14*
X39500000Y-91170000D03*
D15*
X39500000Y-88630000D03*
D16*
X47200000Y-94500000D03*
D17*
X47200000Y-97040000D03*
X47200000Y-99580000D03*
X47200000Y-102120000D03*
X47200000Y-104660000D03*
X47200000Y-107200000D03*
X47200000Y-109740000D03*
X47200000Y-112280000D03*
X47200000Y-114820000D03*
D18*
X38900000Y-64300000D03*
X38900000Y-66840000D03*
X38900000Y-61760000D03*
X41400000Y-77200000D03*
X41400000Y-79740000D03*
X41400000Y-74660000D03*
D19*
X62000000Y-140500000D03*
X62000000Y-69500000D03*
X95900000Y-84900000D03*
X106500000Y-107600000D03*
X73000000Y-85000000D03*
X88000000Y-107700000D03*
X118100000Y-85100000D03*
X118100000Y-107800000D03*
X122000000Y-140500000D03*
X122000000Y-69500000D03*
X122000000Y-144000000D03*
X107000000Y-143746000D03*
X92000000Y-143898400D03*
X77000000Y-144050800D03*
X62000000Y-144000000D03*
X47000000Y-144000000D03*
X129000000Y-62000000D03*
X128746000Y-77000000D03*
X128898400Y-92000000D03*
X129050800Y-107000000D03*
X129000000Y-122000000D03*
X129000000Y-137000000D03*
D20*
X69000000Y-53500000D03*
X91000000Y-53500000D03*
X114000000Y-53500000D03*
X120000000Y-53500000D03*
X122000000Y-53500000D03*
X89000000Y-53500000D03*
D19*
X92000000Y-140500000D03*
X92000000Y-69500000D03*
D20*
X127000000Y-59000000D03*
X112000000Y-53500000D03*
D21*
X75000000Y-62000000D03*
X63000000Y-62000000D03*
X98000000Y-62000000D03*
X86000000Y-62000000D03*
X121000000Y-62000000D03*
X109000000Y-62000000D03*
X74000000Y-75500000D03*
X97000000Y-75500000D03*
X120000000Y-75500000D03*
X101500000Y-94300000D03*
X114000000Y-94300000D03*
X126500000Y-94300000D03*
X91300000Y-119400000D03*
X103800000Y-119400000D03*
X116300000Y-119400000D03*
M02*
