G04 #@! TF.FileFunction,Paste,Top*
%FSLAX46Y46*%
G04 Gerber Fmt 4.6, Leading zero omitted, Abs format (unit mm)*
G04 Created by KiCad (PCBNEW 4.0.7-e2-6376~58~ubuntu14.04.1) date Sun Jan 28 19:01:43 2018*
%MOMM*%
%LPD*%
G01*
G04 APERTURE LIST*
%ADD10C,0.150000*%
%ADD11R,0.635000X1.143000*%
%ADD12R,1.143000X0.635000*%
%ADD13R,2.032000X1.524000*%
%ADD14R,1.100000X1.100000*%
%ADD15R,0.600000X0.600000*%
%ADD16R,0.600000X0.400000*%
%ADD17R,0.400000X0.600000*%
%ADD18R,1.500000X0.450000*%
%ADD19R,1.524000X2.540000*%
%ADD20R,1.450000X0.450000*%
G04 APERTURE END LIST*
D10*
D11*
X71638000Y-98500000D03*
X73162000Y-98500000D03*
X60062000Y-99500000D03*
X58538000Y-99500000D03*
X61462000Y-110200000D03*
X59938000Y-110200000D03*
X71738000Y-111000000D03*
X73262000Y-111000000D03*
D12*
X43400000Y-83438000D03*
X43400000Y-84962000D03*
D13*
X46800000Y-77351000D03*
X46800000Y-74049000D03*
X47100000Y-81749000D03*
X47100000Y-85051000D03*
D14*
X54100000Y-82900000D03*
X56900000Y-82900000D03*
X54100000Y-86000000D03*
X56900000Y-86000000D03*
X54200000Y-88800000D03*
X57000000Y-88800000D03*
X46400000Y-61700000D03*
X49200000Y-61700000D03*
X54100000Y-91700000D03*
X56900000Y-91700000D03*
X54100000Y-94500000D03*
X56900000Y-94500000D03*
D15*
X84800000Y-97250000D03*
D16*
X84800000Y-98000000D03*
D15*
X84800000Y-98750000D03*
X86600000Y-98750000D03*
D16*
X86600000Y-98000000D03*
D15*
X86600000Y-97250000D03*
X84800000Y-113650000D03*
D16*
X84800000Y-114400000D03*
D15*
X84800000Y-115150000D03*
X86600000Y-115150000D03*
D16*
X86600000Y-114400000D03*
D15*
X86600000Y-113650000D03*
X53800000Y-62350000D03*
D16*
X53800000Y-63100000D03*
D15*
X53800000Y-63850000D03*
X55600000Y-63850000D03*
D16*
X55600000Y-63100000D03*
D15*
X55600000Y-62350000D03*
X84700000Y-92950000D03*
D16*
X84700000Y-93700000D03*
D15*
X84700000Y-94450000D03*
X86500000Y-94450000D03*
D16*
X86500000Y-93700000D03*
D15*
X86500000Y-92950000D03*
X84700000Y-118650000D03*
D16*
X84700000Y-119400000D03*
D15*
X84700000Y-120150000D03*
X86500000Y-120150000D03*
D16*
X86500000Y-119400000D03*
D15*
X86500000Y-118650000D03*
X53900000Y-69150000D03*
D16*
X53900000Y-69900000D03*
D15*
X53900000Y-70650000D03*
X55700000Y-70650000D03*
D16*
X55700000Y-69900000D03*
D15*
X55700000Y-69150000D03*
X84700000Y-89850000D03*
D16*
X84700000Y-90600000D03*
D15*
X84700000Y-91350000D03*
X86500000Y-91350000D03*
D16*
X86500000Y-90600000D03*
D15*
X86500000Y-89850000D03*
X84700000Y-124050000D03*
D16*
X84700000Y-124800000D03*
D15*
X84700000Y-125550000D03*
X86500000Y-125550000D03*
D16*
X86500000Y-124800000D03*
D15*
X86500000Y-124050000D03*
X53900000Y-75450000D03*
D16*
X53900000Y-76200000D03*
D15*
X53900000Y-76950000D03*
X55700000Y-76950000D03*
D16*
X55700000Y-76200000D03*
D15*
X55700000Y-75450000D03*
X68350000Y-84300000D03*
D17*
X67600000Y-84300000D03*
D15*
X66850000Y-84300000D03*
X66850000Y-86100000D03*
D17*
X67600000Y-86100000D03*
D15*
X68350000Y-86100000D03*
X91350000Y-84200000D03*
D17*
X90600000Y-84200000D03*
D15*
X89850000Y-84200000D03*
X89850000Y-86000000D03*
D17*
X90600000Y-86000000D03*
D15*
X91350000Y-86000000D03*
X114350000Y-84300000D03*
D17*
X113600000Y-84300000D03*
D15*
X112850000Y-84300000D03*
X112850000Y-86100000D03*
D17*
X113600000Y-86100000D03*
D15*
X114350000Y-86100000D03*
D12*
X63600000Y-86262000D03*
X63600000Y-84738000D03*
X86500000Y-86162000D03*
X86500000Y-84638000D03*
X109500000Y-86262000D03*
X109500000Y-84738000D03*
X63600000Y-81738000D03*
X63600000Y-83262000D03*
X86500000Y-81638000D03*
X86500000Y-83162000D03*
X109500000Y-81638000D03*
X109500000Y-83162000D03*
D18*
X55050000Y-101725000D03*
X55050000Y-102375000D03*
X55050000Y-103025000D03*
X55050000Y-103675000D03*
X55050000Y-104325000D03*
X55050000Y-104975000D03*
X55050000Y-105625000D03*
X55050000Y-106275000D03*
X60950000Y-106275000D03*
X60950000Y-105625000D03*
X60950000Y-104975000D03*
X60950000Y-104325000D03*
X60950000Y-103675000D03*
X60950000Y-103025000D03*
X60950000Y-102375000D03*
X60950000Y-101725000D03*
X55050000Y-114725000D03*
X55050000Y-115375000D03*
X55050000Y-116025000D03*
X55050000Y-116675000D03*
X55050000Y-117325000D03*
X55050000Y-117975000D03*
X55050000Y-118625000D03*
X55050000Y-119275000D03*
X60950000Y-119275000D03*
X60950000Y-118625000D03*
X60950000Y-117975000D03*
X60950000Y-117325000D03*
X60950000Y-116675000D03*
X60950000Y-116025000D03*
X60950000Y-115375000D03*
X60950000Y-114725000D03*
D19*
X71209800Y-57689600D03*
X66891800Y-57689600D03*
X94209800Y-57689600D03*
X89891800Y-57689600D03*
X117209800Y-57689600D03*
X112891800Y-57689600D03*
X66841000Y-81658000D03*
X71159000Y-81658000D03*
X89841000Y-81658000D03*
X94159000Y-81658000D03*
X112841000Y-81658000D03*
X117159000Y-81658000D03*
X94341000Y-100458000D03*
X98659000Y-100458000D03*
X106841000Y-100458000D03*
X111159000Y-100458000D03*
X119341000Y-100458000D03*
X123659000Y-100458000D03*
X98459000Y-113242000D03*
X94141000Y-113242000D03*
X110959000Y-113242000D03*
X106641000Y-113242000D03*
X123459000Y-113242000D03*
X119141000Y-113242000D03*
D20*
X66550000Y-102050000D03*
X66550000Y-102700000D03*
X66550000Y-103350000D03*
X66550000Y-104000000D03*
X66550000Y-104650000D03*
X66550000Y-105300000D03*
X66550000Y-105950000D03*
X72450000Y-105950000D03*
X72450000Y-105300000D03*
X72450000Y-104650000D03*
X72450000Y-104000000D03*
X72450000Y-103350000D03*
X72450000Y-102700000D03*
X72450000Y-102050000D03*
X66550000Y-115050000D03*
X66550000Y-115700000D03*
X66550000Y-116350000D03*
X66550000Y-117000000D03*
X66550000Y-117650000D03*
X66550000Y-118300000D03*
X66550000Y-118950000D03*
X72450000Y-118950000D03*
X72450000Y-118300000D03*
X72450000Y-117650000D03*
X72450000Y-117000000D03*
X72450000Y-116350000D03*
X72450000Y-115700000D03*
X72450000Y-115050000D03*
M02*
